<svg width="115" height="115" viewBox="0 0 115 115" fill="none" xmlns="http://www.w3.org/2000/svg">
<path fill-rule="evenodd" clip-rule="evenodd" d="M44.4506 12.8751C44.4098 12.9409 44.043 12.995 43.6356 12.995C43.2184 12.995 42.895 13.0453 42.895 13.11C42.895 13.1747 42.5715 13.225 42.1544 13.225C41.747 13.225 41.3816 13.2767 41.3425 13.34C41.3034 13.4032 41.0964 13.455 40.8825 13.455C40.6686 13.455 40.4616 13.5067 40.4225 13.57C40.3834 13.6332 40.1505 13.685 39.905 13.685C39.6594 13.685 39.4266 13.7367 39.3875 13.8C39.3484 13.8632 39.1931 13.915 39.0425 13.915C38.8918 13.915 38.7366 13.9667 38.6975 14.03C38.6584 14.0932 38.5031 14.145 38.3525 14.145C38.2018 14.145 38.0466 14.1967 38.0075 14.26C37.9684 14.3232 37.8131 14.375 37.6625 14.375C37.5118 14.375 37.3566 14.4267 37.3175 14.49C37.2784 14.5532 37.1231 14.605 36.9725 14.605C36.8218 14.605 36.6666 14.6567 36.6275 14.72C36.5884 14.7832 36.43 14.835 36.2756 14.835C36.1212 14.835 35.995 14.8867 35.995 14.95C35.995 15.0132 35.8946 15.065 35.7719 15.065C35.6491 15.065 35.5166 15.1167 35.4775 15.18C35.4384 15.2432 35.28 15.295 35.1256 15.295C34.9712 15.295 34.845 15.3467 34.845 15.41C34.845 15.4732 34.7415 15.525 34.615 15.525C34.4885 15.525 34.385 15.5767 34.385 15.64C34.385 15.7032 34.2815 15.755 34.155 15.755C34.0285 15.755 33.925 15.8067 33.925 15.87C33.925 15.9332 33.8577 15.985 33.7755 15.985C33.5639 15.985 33.007 16.2555 33.0058 16.3587C33.0053 16.4062 32.8497 16.445 32.66 16.445C32.4702 16.445 32.315 16.4967 32.315 16.56C32.315 16.6232 32.235 16.675 32.1376 16.675C32.0401 16.675 31.8492 16.7785 31.7135 16.905C31.5778 17.0315 31.3987 17.135 31.3159 17.135C31.2328 17.135 31.165 17.1867 31.165 17.25C31.165 17.3132 31.0971 17.365 31.014 17.365C30.9312 17.365 30.7521 17.4685 30.6164 17.595C30.4807 17.7215 30.3286 17.825 30.2786 17.8253C30.2286 17.8253 30.0063 17.9805 29.785 18.17C29.5636 18.3595 29.3178 18.5147 29.2387 18.5147C29.1597 18.515 29.095 18.5581 29.095 18.6104C29.095 18.6631 28.9527 18.7795 28.7787 18.8692C28.6048 18.9592 28.3253 19.1748 28.1577 19.3488C27.9898 19.5227 27.7998 19.665 27.7351 19.665C27.6704 19.665 27.2509 20.0272 26.803 20.47C26.3548 20.9127 25.9411 21.275 25.8836 21.275C25.7286 21.275 23.575 23.4249 23.575 23.5799C23.575 23.6529 23.4306 23.8498 23.2544 24.0177C23.0779 24.1854 22.8088 24.5036 22.6561 24.725C22.5032 24.9464 22.2852 25.2112 22.1717 25.3135C22.0581 25.4159 21.965 25.5452 21.965 25.601C21.9647 25.6568 21.8321 25.8566 21.6703 26.0446C21.5087 26.2329 21.2905 26.5693 21.1856 26.7921C21.0806 27.0152 20.9027 27.2978 20.79 27.4203C20.6773 27.5431 20.585 27.7113 20.585 27.7941C20.585 27.8772 20.5332 27.945 20.47 27.945C20.4067 27.945 20.355 28.0128 20.355 28.0959C20.355 28.1787 20.2515 28.3579 20.125 28.4936C19.9985 28.6292 19.895 28.8202 19.895 28.9176C19.895 29.0151 19.8432 29.095 19.78 29.095C19.7167 29.095 19.665 29.1942 19.665 29.3155C19.665 29.4366 19.6241 29.553 19.5744 29.5743C19.5247 29.5952 19.3433 29.8971 19.1716 30.245C18.9997 30.5929 18.7737 31.0327 18.6696 31.2225C18.3502 31.8038 18.285 31.9602 18.285 32.1411C18.285 32.2368 18.2332 32.315 18.17 32.315C18.1067 32.315 18.055 32.4449 18.055 32.6039C18.055 32.7629 18.0032 32.9958 17.94 33.1214C17.8767 33.2471 17.7732 33.4529 17.71 33.5786C17.6467 33.7042 17.595 33.9371 17.595 34.0961C17.595 34.255 17.5432 34.385 17.48 34.385C17.4167 34.385 17.365 34.5112 17.365 34.6656C17.365 34.82 17.3132 34.9784 17.25 35.0175C17.1867 35.0566 17.135 35.2636 17.135 35.4775C17.135 35.6914 17.0832 35.8984 17.02 35.9375C16.9567 35.9766 16.905 36.1609 16.905 36.3469C16.905 36.5329 16.8587 36.685 16.802 36.685C16.6991 36.685 16.6189 37.1059 16.4956 38.295C16.4593 38.6429 16.3829 39.031 16.3257 39.1575C16.0666 39.729 15.9795 45.7145 16.1957 48.07C16.4303 50.6259 16.4637 50.8858 16.57 50.9967C16.6278 51.0568 16.675 51.2736 16.675 51.4786C16.675 51.6836 16.7267 51.8834 16.79 51.9225C16.8532 51.9616 16.905 52.1427 16.905 52.325C16.905 52.5073 16.9567 52.6884 17.02 52.7275C17.0832 52.7666 17.135 52.9736 17.135 53.1875C17.135 53.4014 17.1867 53.6084 17.25 53.6475C17.3132 53.6866 17.365 53.8677 17.365 54.05C17.365 54.2323 17.4167 54.4134 17.48 54.4525C17.5432 54.4916 17.595 54.6192 17.595 54.736C17.595 54.8527 17.7059 55.173 17.8414 55.4478C17.9768 55.7227 18.1254 56.051 18.1717 56.1775C18.4902 57.0489 19.8395 59.7376 20.0922 60.0056C20.169 60.0869 20.3225 60.3069 20.4332 60.4943C20.5439 60.6818 20.6752 60.835 20.7247 60.835C20.7744 60.835 20.815 60.9342 20.815 61.0555C20.815 61.1765 20.8538 61.293 20.9012 61.3143C20.9487 61.3352 21.112 61.5983 21.2643 61.8988C21.4164 62.1992 21.5846 62.445 21.6381 62.445C21.6913 62.445 21.735 62.5149 21.735 62.6005C21.735 62.6859 21.8902 62.9182 22.08 63.1169C22.2697 63.3155 22.425 63.526 22.425 63.5846C22.425 63.7327 26.5293 67.8437 27.025 68.1921C27.2463 68.3477 27.5827 68.6188 27.7725 68.7944C27.9622 68.9701 28.1586 69.1141 28.2086 69.1144C28.2586 69.1147 28.4107 69.2185 28.5464 69.345C28.6821 69.4715 28.8612 69.575 28.944 69.575C29.0271 69.575 29.095 69.6267 29.095 69.69C29.095 69.7532 29.1985 69.805 29.325 69.805C29.4515 69.805 29.555 69.8567 29.555 69.92C29.555 69.9832 29.6228 70.035 29.7059 70.035C29.7887 70.035 29.9569 70.1256 30.0797 70.2362C30.2021 70.3469 30.4448 70.5108 30.6187 70.6008C30.7927 70.6905 30.935 70.8069 30.935 70.8595C30.935 70.9119 31.0385 70.955 31.165 70.955C31.2915 70.955 31.395 71.0067 31.395 71.07C31.395 71.1332 31.4985 71.185 31.625 71.185C31.7515 71.185 31.855 71.2367 31.855 71.3C31.855 71.3632 31.9585 71.415 32.085 71.415C32.2115 71.415 32.315 71.4667 32.315 71.53C32.315 71.5932 32.4185 71.645 32.545 71.645C32.6715 71.645 32.775 71.6968 32.775 71.76C32.775 71.8232 32.8785 71.875 33.005 71.875C33.1315 71.875 33.235 71.9267 33.235 71.99C33.235 72.0532 33.3132 72.105 33.4089 72.105C33.5046 72.105 33.6858 72.1567 33.8114 72.22C33.937 72.2832 34.1429 72.3867 34.2685 72.45C34.3942 72.5132 34.5753 72.565 34.671 72.565C34.7668 72.565 34.845 72.6167 34.845 72.68C34.845 72.7432 34.9485 72.795 35.075 72.795C35.2015 72.795 35.305 72.8467 35.305 72.91C35.305 72.9732 35.4085 73.025 35.535 73.025C35.6615 73.025 35.765 73.0767 35.765 73.14C35.765 73.2032 35.972 73.255 36.225 73.255C36.478 73.255 36.685 73.3067 36.685 73.37C36.685 73.4332 36.804 73.485 36.9495 73.485C37.0949 73.485 37.2695 73.5405 37.3373 73.6083C37.4052 73.6762 37.6354 73.715 37.8491 73.6946L38.2375 73.6575L38.2702 72.2792C38.2881 71.5214 38.3528 70.8512 38.414 70.79C38.4749 70.729 38.525 70.3561 38.525 69.9614C38.525 69.5667 38.5767 69.2116 38.64 69.1725C38.7032 69.1334 38.755 68.7421 38.755 68.3031C38.755 67.8477 38.8044 67.505 38.87 67.505C38.9332 67.505 38.985 67.2566 38.985 66.953C38.985 66.6494 39.0321 66.3518 39.0896 66.2917C39.1917 66.1851 39.2613 65.4635 39.2305 64.8312C39.2193 64.6027 39.1543 64.515 38.9968 64.515C38.8766 64.515 38.4833 64.3597 38.1225 64.17C37.7617 63.9802 37.4181 63.825 37.3586 63.825C37.2991 63.825 37.1392 63.7215 37.0035 63.595C36.8678 63.4685 36.6726 63.365 36.57 63.365C36.4673 63.365 36.283 63.2744 36.1603 63.1637C36.0378 63.0531 35.7952 62.8892 35.6212 62.7992C35.4473 62.7095 35.305 62.5931 35.305 62.5404C35.305 62.4881 35.213 62.445 35.1003 62.445C34.9879 62.445 34.8211 62.3415 34.73 62.215C34.6388 62.0885 34.5057 61.985 34.4341 61.985C34.3625 61.985 34.1417 61.8297 33.9431 61.64C33.7444 61.4502 33.536 61.295 33.4799 61.295C33.4236 61.295 33.1645 61.088 32.9038 60.835C32.643 60.582 32.3848 60.375 32.3302 60.375C32.1902 60.375 31.0577 59.2552 30.6613 58.7245C30.479 58.4807 30.1038 58.0552 29.8275 57.7786C29.5512 57.5023 29.325 57.2306 29.325 57.1751C29.325 57.1196 29.1697 56.9118 28.98 56.7131C28.7902 56.5144 28.635 56.2784 28.635 56.1881C28.635 56.0979 28.5933 56.007 28.5421 55.9857C28.4076 55.9305 27.715 54.8938 27.715 54.748C27.715 54.6805 27.6713 54.625 27.6181 54.625C27.5646 54.625 27.3964 54.3792 27.2443 54.0788C27.092 53.7783 26.9287 53.5152 26.8812 53.4943C26.8338 53.473 26.795 53.3338 26.795 53.1846C26.795 53.0357 26.7432 52.8816 26.68 52.8425C26.6167 52.8034 26.565 52.6191 26.565 52.4331C26.565 52.2471 26.5132 52.095 26.45 52.095C26.3867 52.095 26.335 51.9947 26.335 51.8719C26.335 51.7491 26.2832 51.6166 26.22 51.5775C26.1567 51.5384 26.105 51.38 26.105 51.2256C26.105 51.0712 26.0532 50.945 25.99 50.945C25.9267 50.945 25.875 50.7897 25.875 50.6C25.875 50.4102 25.8232 50.255 25.76 50.255C25.6967 50.255 25.645 50.1101 25.645 49.933C25.645 49.7559 25.5984 49.5618 25.5418 49.5017C25.4851 49.4417 25.4092 49.1855 25.3736 48.9325C25.2267 47.8894 25.1519 47.5453 25.0435 47.4102C24.8805 47.2072 24.8957 41.2982 25.0596 41.1343C25.1286 41.0653 25.185 40.7896 25.185 40.5214C25.185 40.2532 25.2367 40.0016 25.3 39.9625C25.3632 39.9234 25.415 39.7164 25.415 39.5025C25.415 39.2886 25.4667 39.0816 25.53 39.0425C25.5932 39.0034 25.645 38.8482 25.645 38.6975C25.645 38.5469 25.6967 38.3916 25.76 38.3525C25.8232 38.3134 25.875 38.1291 25.875 37.9431C25.875 37.7571 25.9267 37.605 25.99 37.605C26.0532 37.605 26.105 37.5009 26.105 37.3736C26.105 37.2462 26.1567 37.0392 26.22 36.9136C26.2832 36.7879 26.3867 36.5821 26.45 36.4564C26.5132 36.3308 26.565 36.1491 26.565 36.0525C26.565 35.9559 26.6101 35.7871 26.6656 35.6773C27.0963 34.822 27.255 34.456 27.255 34.3166C27.255 34.2277 27.3007 34.155 27.3565 34.155C27.4125 34.155 27.487 34.0644 27.5221 33.9537C27.5844 33.7562 27.9464 33.1183 28.0603 33.005C28.0919 32.9734 28.1911 32.8052 28.2808 32.6312C28.3705 32.4573 28.4869 32.315 28.5395 32.315C28.5918 32.315 28.635 32.2451 28.635 32.1595C28.635 32.0741 28.7779 31.8541 28.9524 31.6707C29.1272 31.4876 29.3943 31.1627 29.5458 30.9488C29.6976 30.7352 30.1757 30.1955 30.6084 29.7499C31.0411 29.3043 31.395 28.8834 31.395 28.8147C31.395 28.746 31.5356 28.5867 31.7075 28.4611C32.1315 28.1509 32.8811 27.4959 33.2522 27.1112C33.4198 26.9373 33.6401 26.795 33.741 26.795C33.8422 26.795 33.925 26.7432 33.925 26.68C33.925 26.6168 33.9928 26.565 34.0759 26.565C34.1587 26.565 34.3292 26.4744 34.4545 26.3637C34.7435 26.1084 35.3024 25.7649 35.5637 25.6821C35.6744 25.647 35.765 25.5725 35.765 25.5165C35.765 25.4607 35.8199 25.415 35.8866 25.415C35.9536 25.415 36.1994 25.2664 36.4328 25.0847C36.6666 24.903 37.0257 24.6833 37.2312 24.5965C37.4368 24.5097 37.605 24.3998 37.605 24.3518C37.605 24.3041 37.7085 24.265 37.835 24.265C37.9615 24.265 38.065 24.2132 38.065 24.15C38.065 24.0867 38.167 24.035 38.2915 24.035C38.416 24.035 38.7024 23.9315 38.9275 23.805C39.1526 23.6785 39.4358 23.575 39.5568 23.575C39.6776 23.575 39.8084 23.5232 39.8475 23.46C39.8866 23.3967 40.0197 23.345 40.1433 23.345C40.2669 23.345 40.4708 23.2933 40.5964 23.23C40.722 23.1667 40.9279 23.0632 41.0535 23C41.1792 22.9367 41.4348 22.885 41.6216 22.885C41.8085 22.885 41.9934 22.8332 42.0325 22.77C42.0716 22.7067 42.2973 22.655 42.5339 22.655C42.7705 22.655 43.0131 22.6084 43.0732 22.5518C43.1807 22.45 43.4846 22.3954 44.735 22.2516C45.0828 22.2117 45.477 22.1257 45.6113 22.0607C45.8982 21.9213 48.6677 22.007 49.795 22.1904C50.2061 22.2571 50.8409 22.3436 51.2054 22.3824C51.5703 22.4213 51.8969 22.4983 51.9311 22.5541C51.9653 22.6096 52.1873 22.655 52.4239 22.655C52.6605 22.655 52.9031 22.7022 52.9632 22.7597C53.0233 22.8172 53.3053 22.8818 53.59 22.9034L54.1075 22.9425L54.0965 20.2975C54.0713 14.1056 53.9657 13.225 53.2484 13.225C53.019 13.225 52.7818 13.1776 52.7217 13.1198C52.4587 12.8659 44.5998 12.6336 44.4506 12.8751ZM57.0017 14.9118C56.8807 15.0325 56.9123 15.9637 57.04 16.0425C57.1032 16.0816 57.155 16.5505 57.155 17.0844C57.155 17.8704 57.1877 18.055 57.3275 18.055C57.5764 18.055 57.569 16.4519 57.3177 15.966C57.0322 15.414 57.2855 15.299 57.7507 15.7697C58.1756 16.1998 59.0723 17.202 59.34 17.5458C59.5818 17.8563 60.492 19.692 60.4908 19.8662C60.4903 19.9453 60.5417 20.01 60.605 20.01C60.6682 20.01 60.72 20.1135 60.72 20.24C60.72 20.3665 60.7717 20.47 60.835 20.47C60.8982 20.47 60.95 20.5424 60.95 20.6307C60.95 20.7193 61.1052 21.0867 61.295 21.4475C61.4847 21.8083 61.64 22.1984 61.64 22.3149C61.64 22.4313 61.6917 22.5584 61.755 22.5975C61.8182 22.6366 61.87 22.8436 61.87 23.0575C61.87 23.2714 61.9163 23.4749 61.9729 23.51C62.0295 23.5448 62.1043 23.7679 62.1394 24.0054C62.1744 24.2431 62.2607 24.7221 62.3308 25.07C62.401 25.4179 62.4869 25.9354 62.5215 26.22C62.5562 26.5046 62.6376 26.8028 62.7023 26.8824C62.7793 26.9773 62.8133 28.842 62.8006 32.2874C62.7897 35.2369 62.84 38.5075 62.9156 39.7325C62.9921 40.9785 63.047 44.6608 63.043 48.3C63.0392 51.8104 63.0806 55.6916 63.1353 56.925C63.1896 58.1584 63.2396 59.4521 63.2462 59.8C63.2589 60.4771 62.9921 62.9636 62.8756 63.25C62.8371 63.3449 62.7799 63.6036 62.7486 63.825C62.7172 64.0464 62.6324 64.4604 62.56 64.745C62.4875 65.0296 62.4004 65.4313 62.3665 65.6374C62.3323 65.8435 62.2584 66.0405 62.2023 66.0753C62.146 66.11 62.1 66.2397 62.1 66.3633C62.1 66.487 62.0537 66.6779 61.997 66.7877C61.9404 66.8975 61.7225 67.3497 61.5126 67.7925C61.3027 68.2352 60.8833 68.9704 60.5805 69.4261C60.2778 69.8818 60.03 70.2966 60.03 70.3481C60.03 70.6333 58.3668 72.45 58.106 72.45C57.9695 72.45 57.9522 72.3629 58.0215 72.0187C58.0692 71.7816 58.1241 69.7647 58.1434 67.5369C58.1661 64.9129 58.2225 63.4044 58.3032 63.2534C58.3832 63.1039 58.4234 62.1138 58.4157 60.498C58.407 58.7472 58.4453 57.8976 58.5401 57.7202C58.629 57.5543 58.6583 57.1179 58.6238 56.4762C58.5853 55.7563 58.6137 55.4211 58.729 55.2434C58.9452 54.9099 58.9021 45.4129 58.6842 45.3405C58.5801 45.306 58.5631 44.8184 58.6152 43.3702C58.6853 41.4161 58.6224 40.595 58.4027 40.595C58.3182 40.595 58.3067 41.3083 58.3653 42.9237C58.4939 46.4692 58.5235 55.1937 58.407 55.2655C58.351 55.3 58.305 55.8845 58.305 56.5639C58.305 57.2433 58.2572 57.8482 58.1989 57.9082C58.081 58.0299 57.9864 60.8154 57.8933 66.93C57.8582 69.2254 57.7834 71.0602 57.7228 71.1217C57.6636 71.1818 57.615 71.6346 57.615 72.128V73.025H57.958C58.328 73.025 59.915 71.6614 59.915 71.3437C59.915 71.2563 59.9607 71.185 60.0168 71.185C60.0728 71.185 60.2013 71.0111 60.3022 70.7983C60.4031 70.5856 60.5644 70.3464 60.6605 70.2667C60.7565 70.1871 60.835 70.0568 60.835 69.9775C60.835 69.8981 60.91 69.7708 61.002 69.6946C61.1814 69.5457 61.7533 68.4586 61.7576 68.2585C61.759 68.1921 61.8614 68.0081 61.985 67.85C62.1086 67.6919 62.211 67.4412 62.2124 67.2931C62.2138 67.1451 62.3185 66.8923 62.445 66.7313C62.5715 66.5706 62.675 66.2771 62.675 66.079C62.675 65.8812 62.7785 65.4361 62.905 65.09C63.0315 64.7438 63.135 64.3206 63.135 64.1496C63.135 63.9785 63.1867 63.8066 63.25 63.7675C63.3132 63.7284 63.365 63.3992 63.365 63.0361C63.365 62.673 63.4205 62.3205 63.488 62.2529C63.574 62.167 63.5909 60.4822 63.5447 56.6812C63.5084 53.6843 63.4535 49.0331 63.4228 46.345C63.392 43.6569 63.3164 40.9918 63.2549 40.4225C63.1931 39.8533 63.139 36.6965 63.135 33.4075C63.1307 30.0926 63.0792 27.2225 63.0188 26.9675C62.9593 26.7145 62.9093 26.3238 62.9078 26.0992C62.9061 25.8747 62.8581 25.6418 62.8006 25.5818C62.7431 25.5217 62.6684 25.2137 62.6342 24.8975C62.5378 24.0042 62.426 23.4134 62.3294 23.2875C62.2808 23.2242 62.2035 22.9396 62.1575 22.655C62.1115 22.3704 62.008 22.0081 61.9278 21.85C61.8473 21.6919 61.659 21.3037 61.5094 20.9875C61.3599 20.6712 61.1987 20.3952 61.1512 20.3743C61.1038 20.353 61.065 20.2618 61.065 20.1713C61.065 20.081 61.017 19.9171 60.9583 19.8073C60.8994 19.6975 60.7395 19.3617 60.603 19.0612C60.4664 18.7608 60.3074 18.515 60.2496 18.515C60.1921 18.515 60.145 18.3856 60.145 18.2275C60.145 18.0694 60.0415 17.8365 59.915 17.71C59.7885 17.5835 59.685 17.4328 59.685 17.3751C59.685 17.3173 59.3745 16.9547 58.995 16.5692C58.6155 16.1839 58.305 15.8154 58.305 15.7504C58.305 15.3568 57.2409 14.6723 57.0017 14.9118ZM57.433 20.2112C57.4704 21.2707 57.529 23.2501 57.5629 24.61C57.6279 27.2136 57.6638 27.5451 57.8493 27.2518C58.0471 26.939 57.9844 22.7614 57.7763 22.3675C57.6296 22.0906 57.6089 21.8227 57.671 21.0093C57.7581 19.8671 57.6452 18.285 57.4767 18.285C57.4065 18.285 57.3904 18.9986 57.433 20.2112ZM57.8921 30.4462C57.9318 31.8852 57.9933 34.6409 58.029 36.57C58.0899 39.8834 58.1871 40.8233 58.3679 39.8584C58.495 39.1822 58.3748 33.4308 58.2328 33.3833C58.15 33.3557 58.1276 32.6933 58.1635 31.3317C58.2196 29.1913 58.1322 27.83 57.9384 27.83C57.8585 27.83 57.8435 28.683 57.8921 30.4462ZM71.6211 41.2623C71.3555 41.3135 71.3468 41.454 71.4529 44.045C71.5058 45.3416 71.5656 47.2822 71.5855 48.3575C71.6053 49.4327 71.6269 50.4031 71.6335 50.5137C71.6424 50.6724 71.7496 50.715 72.1395 50.715C72.4114 50.715 72.6831 50.761 72.7432 50.8176C72.8033 50.874 73.163 50.9519 73.5425 50.991C74.9573 51.1368 75.325 51.2009 75.325 51.3015C75.325 51.3584 75.4771 51.405 75.6631 51.405C75.8491 51.405 76.0334 51.4567 76.0725 51.52C76.1116 51.5832 76.3217 51.635 76.5394 51.635C76.757 51.635 76.935 51.6867 76.935 51.75C76.935 51.8132 77.0612 51.865 77.2156 51.865C77.37 51.865 77.5284 51.9167 77.5675 51.98C77.6066 52.0432 77.7618 52.095 77.9125 52.095C78.0631 52.095 78.2184 52.1468 78.2575 52.21C78.2966 52.2733 78.4291 52.325 78.5519 52.325C78.6746 52.325 78.775 52.3767 78.775 52.44C78.775 52.5032 78.8785 52.555 79.005 52.555C79.1315 52.555 79.2353 52.5938 79.2358 52.6413C79.237 52.7531 79.8013 53.015 80.0411 53.015C80.1432 53.015 80.3378 53.1185 80.4735 53.245C80.6092 53.3715 80.8001 53.475 80.8976 53.475C80.995 53.475 81.075 53.5267 81.075 53.59C81.075 53.6532 81.1428 53.705 81.2259 53.705C81.3087 53.705 81.4769 53.7956 81.5997 53.9062C81.7221 54.0169 81.9648 54.1808 82.1387 54.2708C82.3127 54.3605 82.455 54.4769 82.455 54.5295C82.455 54.5819 82.5332 54.625 82.6286 54.625C82.7241 54.625 82.9644 54.7802 83.1631 54.97C83.3617 55.1597 83.5679 55.315 83.6211 55.315C83.6745 55.315 84.0937 55.6836 84.5529 56.1344C85.012 56.5849 85.5039 57.0308 85.6462 57.1251C85.7885 57.2194 85.905 57.3462 85.905 57.4071C85.905 57.4681 86.112 57.7168 86.365 57.96C86.618 58.2032 86.825 58.4502 86.825 58.5088C86.825 58.5678 86.9802 58.7782 87.17 58.9769C87.3597 59.1755 87.515 59.3825 87.515 59.4369C87.515 59.4912 87.6702 59.6982 87.86 59.8969C88.0497 60.0956 88.205 60.3359 88.205 60.4313C88.205 60.5268 88.2567 60.605 88.32 60.605C88.3832 60.605 88.435 60.7085 88.435 60.835C88.435 60.9615 88.4867 61.065 88.55 61.065C88.6132 61.065 88.665 61.1328 88.665 61.2159C88.665 61.2987 88.7685 61.4778 88.895 61.6135C89.0215 61.7492 89.125 61.9401 89.125 62.0376C89.125 62.1351 89.1767 62.215 89.24 62.215C89.3032 62.215 89.355 62.3185 89.355 62.445C89.355 62.5715 89.4067 62.675 89.47 62.675C89.5332 62.675 89.585 62.7753 89.585 62.8981C89.585 63.0209 89.6367 63.1534 89.7 63.1925C89.7632 63.2316 89.815 63.39 89.815 63.5444C89.815 63.6988 89.8667 63.825 89.93 63.825C89.9932 63.825 90.045 63.9253 90.045 64.0481C90.045 64.1709 90.0967 64.3034 90.16 64.3425C90.2232 64.3816 90.275 64.54 90.275 64.6944C90.275 64.8488 90.3267 64.975 90.39 64.975C90.4532 64.975 90.505 65.0753 90.505 65.1981C90.505 65.3209 90.5567 65.4534 90.62 65.4925C90.6832 65.5316 90.735 65.69 90.735 65.8444C90.735 65.9988 90.7885 66.125 90.8537 66.125C91.0946 66.125 91.0981 65.765 90.8623 65.2634C90.7292 64.9796 90.62 64.6944 90.62 64.6297C90.62 64.565 90.5743 64.4221 90.5185 64.3123C90.4624 64.2025 90.3655 63.9831 90.3029 63.825C89.9843 63.0203 89.6034 62.2236 89.2098 61.5379C89.0784 61.3094 88.8613 60.9097 88.7268 60.6498C88.5925 60.3899 88.3424 60.0107 88.1713 59.8075C88 59.6039 87.86 59.3992 87.86 59.3529C87.86 59.3064 87.7642 59.1658 87.6475 59.0401C87.5305 58.9148 87.4141 58.7526 87.3888 58.6799C87.2959 58.4151 85.2955 56.2617 84.69 55.775C84.5718 55.6801 84.2665 55.4311 84.0115 55.2216C83.7562 55.0123 83.4687 54.7771 83.3724 54.6989C82.9454 54.353 82.1152 53.82 82.003 53.82C81.9355 53.82 81.88 53.7746 81.88 53.7191C81.88 53.6633 81.7247 53.5535 81.535 53.475C81.3452 53.3965 81.19 53.2867 81.19 53.2309C81.19 53.1754 81.0865 53.13 80.96 53.13C80.8335 53.13 80.73 53.0909 80.73 53.0432C80.73 52.9952 80.5747 52.8917 80.385 52.8132C80.1952 52.7344 79.8847 52.6056 79.695 52.5268C79.5052 52.4483 79.35 52.3448 79.35 52.2968C79.35 52.2491 79.2718 52.21 79.176 52.21C79.0803 52.21 78.9121 52.1643 78.8023 52.1085C78.6925 52.0524 78.4472 51.9429 78.2575 51.865C78.0677 51.7871 77.8225 51.6775 77.7127 51.6215C77.6028 51.5657 77.4119 51.52 77.2883 51.52C77.1647 51.52 77.0316 51.4683 76.9925 51.405C76.9534 51.3417 76.7722 51.29 76.59 51.29C76.4077 51.29 76.2266 51.2382 76.1875 51.175C76.1484 51.1117 75.9744 51.06 75.8011 51.06C75.6277 51.06 75.4368 51.0134 75.3767 50.9568C75.2203 50.809 74.3544 50.69 73.4881 50.6969C73.0784 50.7001 72.7162 50.6615 72.6831 50.6112C72.6498 50.5606 72.4672 50.4686 72.2775 50.4065L71.9325 50.2935L71.9008 48.3768C71.8836 47.3225 71.8273 46.46 71.7755 46.46C71.7238 46.46 71.6864 45.4848 71.6921 44.2931C71.6999 42.6696 71.6648 42.0811 71.5527 41.9454C71.425 41.7913 71.4423 41.751 71.6677 41.6748C72.0064 41.5607 75.0852 41.5446 75.1234 41.657C75.1574 41.7556 76.0762 41.971 76.82 42.0543C77.1046 42.0863 77.3866 42.159 77.4467 42.2162C77.5068 42.2731 77.6977 42.32 77.8711 42.32C78.0444 42.32 78.2215 42.3766 78.2644 42.4459C78.3072 42.5155 78.4895 42.5506 78.6692 42.5241C78.8716 42.4945 79.0185 42.5342 79.0544 42.6282C79.0866 42.7116 79.2407 42.78 79.3971 42.78C79.5535 42.78 79.7134 42.8317 79.7525 42.895C79.7916 42.9582 79.9247 43.01 80.0483 43.01C80.1719 43.01 80.3628 43.0557 80.4727 43.1115C80.5825 43.1675 80.8277 43.2771 81.0175 43.355C81.2072 43.4329 81.4525 43.5424 81.5623 43.5985C81.6721 43.6543 81.8167 43.7 81.884 43.7C81.9513 43.7 82.2204 43.8035 82.482 43.93C82.7439 44.0565 83.026 44.16 83.109 44.16C83.1921 44.16 83.26 44.2117 83.26 44.275C83.26 44.3382 83.3413 44.39 83.4405 44.39C83.5397 44.39 83.8373 44.5358 84.1018 44.7143C84.5503 45.0167 85.5882 45.54 85.7397 45.54C85.9024 45.54 88.3234 47.2483 88.9076 47.7753C89.2624 48.0956 89.7658 48.5346 90.0263 48.7508C90.6959 49.3071 93.3101 51.9423 93.3685 52.1197C93.3952 52.2011 93.6149 52.5262 93.8567 52.8425C94.0984 53.1587 94.5515 53.7539 94.8638 54.165C95.176 54.5761 95.5313 55.0419 95.6535 55.2C95.9209 55.5461 97.06 57.3591 97.06 57.4388C97.06 57.5448 98.07 59.5737 98.2016 59.7324C98.2738 59.8195 98.3209 59.9351 98.3063 59.9892C98.2772 60.0953 98.394 60.5219 98.5533 60.8925C98.6076 61.019 98.7436 61.3424 98.8557 61.6112C98.9675 61.8801 99.1044 62.1 99.1599 62.1C99.2151 62.1 99.2269 62.2061 99.1857 62.3355C99.1446 62.4651 99.1599 62.6333 99.2197 62.7092C99.2795 62.7854 99.3623 62.9898 99.4037 63.1637C99.4454 63.3377 99.531 63.48 99.5943 63.48C99.6578 63.48 99.6788 63.6016 99.6414 63.7508C99.5986 63.9207 99.6409 64.0892 99.7538 64.2025C99.8591 64.3077 99.9028 64.4653 99.8585 64.5806C99.8108 64.705 99.8588 64.8341 99.9884 64.929C100.125 65.0288 100.172 65.1647 100.128 65.3332C100.092 65.4729 100.117 65.69 100.184 65.8156C100.251 65.9413 100.321 66.2756 100.339 66.5591C100.356 66.8423 100.436 67.114 100.515 67.1629C100.614 67.2244 100.634 67.4009 100.58 67.7379C100.523 68.0958 100.552 68.2994 100.689 68.5092C100.825 68.7157 100.858 68.9411 100.81 69.3283C100.73 69.9812 100.851 71.415 100.986 71.415C101.127 71.415 101.111 68.7993 100.97 68.7125C100.907 68.6734 100.855 68.337 100.855 67.965C100.855 67.593 100.803 67.2566 100.74 67.2175C100.677 67.1784 100.625 66.8679 100.625 66.5275C100.625 66.1871 100.573 65.8766 100.51 65.8375C100.447 65.7984 100.395 65.6173 100.395 65.435C100.395 65.2527 100.343 65.0716 100.28 65.0325C100.217 64.9934 100.165 64.8123 100.165 64.63C100.165 64.4477 100.113 64.2666 100.05 64.2275C99.9867 64.1884 99.935 64.0073 99.935 63.825C99.935 63.6427 99.8832 63.4616 99.82 63.4225C99.7567 63.3834 99.705 63.1991 99.705 63.0131C99.705 62.8271 99.6532 62.675 99.59 62.675C99.5267 62.675 99.475 62.5747 99.475 62.4519C99.475 62.3291 99.4232 62.1966 99.36 62.1575C99.2967 62.1184 99.245 61.9631 99.245 61.8125C99.245 61.6618 99.1932 61.5066 99.13 61.4675C99.0667 61.4284 99.015 61.27 99.015 61.1156C99.015 60.9612 98.9632 60.835 98.9 60.835C98.8367 60.835 98.785 60.7347 98.785 60.6119C98.785 60.4891 98.7332 60.3566 98.67 60.3175C98.6067 60.2784 98.555 60.12 98.555 59.9656C98.555 59.8112 98.5032 59.685 98.44 59.685C98.3767 59.685 98.325 59.5654 98.325 59.4191C98.325 59.273 98.2215 59.0421 98.095 58.9064C97.9685 58.7707 97.865 58.583 97.865 58.489C97.865 58.3953 97.8132 58.2866 97.75 58.2475C97.6867 58.2084 97.635 58.05 97.635 57.8956C97.635 57.7412 97.5832 57.615 97.52 57.615C97.4567 57.615 97.405 57.5115 97.405 57.385C97.405 57.2585 97.3532 57.155 97.29 57.155C97.2267 57.155 97.175 57.0871 97.175 57.0041C97.175 56.9213 97.0715 56.7421 96.945 56.6064C96.8185 56.4707 96.715 56.302 96.715 56.2315C96.715 56.1611 96.6396 56.0283 96.5474 55.936C96.4551 55.8437 96.4027 55.7051 96.4309 55.6278C96.4591 55.5508 96.2239 55.2104 95.9085 54.8717C95.5931 54.5327 95.3341 54.1963 95.333 54.1242C95.3321 54.0517 95.1251 53.7892 94.873 53.5411C94.6211 53.2927 94.415 53.0302 94.415 52.9581C94.415 52.8856 94.2856 52.714 94.1275 52.5766C93.9693 52.4391 93.84 52.2548 93.84 52.1669C93.84 52.0792 93.6172 51.8072 93.3449 51.5625C93.0723 51.3176 92.8153 51.0269 92.7733 50.9162C92.7314 50.8056 92.6305 50.715 92.5491 50.715C92.4677 50.715 92.3323 50.5597 92.2484 50.37C92.1644 50.1802 92.0258 50.025 91.9408 50.025C91.8554 50.025 91.3678 49.611 90.8569 49.105C90.3463 48.599 89.8897 48.1841 89.8429 48.1827C89.796 48.1815 89.3737 47.8193 88.9048 47.3777C88.4358 46.9364 87.9942 46.575 87.9238 46.575C87.8534 46.575 87.7211 46.4715 87.63 46.345C87.5388 46.2185 87.396 46.115 87.3123 46.115C87.2286 46.115 87.0492 46.0115 86.9135 45.885C86.7778 45.7585 86.5987 45.655 86.5159 45.655C86.4328 45.655 86.365 45.6032 86.365 45.54C86.365 45.4767 86.2615 45.425 86.135 45.425C86.0085 45.425 85.905 45.3732 85.905 45.31C85.905 45.2467 85.8015 45.195 85.675 45.195C85.5485 45.195 85.445 45.1432 85.445 45.08C85.445 45.0168 85.3415 44.965 85.215 44.965C85.0885 44.965 84.985 44.9132 84.985 44.85C84.985 44.7867 84.8815 44.735 84.755 44.735C84.6285 44.735 84.525 44.6832 84.525 44.62C84.525 44.5567 84.4571 44.505 84.374 44.505C84.2912 44.505 84.1121 44.4015 83.9764 44.275C83.8407 44.1485 83.6498 44.045 83.5524 44.045C83.4549 44.045 83.375 43.9932 83.375 43.93C83.375 43.8667 83.2488 43.815 83.0944 43.815C82.94 43.815 82.7816 43.7632 82.7425 43.7C82.7034 43.6367 82.5708 43.585 82.4481 43.585C82.3253 43.585 82.225 43.5332 82.225 43.47C82.225 43.4067 82.1246 43.355 82.0019 43.355C81.8791 43.355 81.7466 43.3032 81.7075 43.24C81.6684 43.1767 81.51 43.125 81.3556 43.125C81.2012 43.125 81.075 43.0732 81.075 43.01C81.075 42.9468 80.9746 42.895 80.8519 42.895C80.7291 42.895 80.5966 42.8432 80.5575 42.78C80.5184 42.7167 80.3372 42.665 80.155 42.665C79.9727 42.665 79.7916 42.6132 79.7525 42.55C79.7134 42.4867 79.5581 42.435 79.4075 42.435C79.2568 42.435 79.1016 42.3832 79.0625 42.32C79.0234 42.2567 78.8423 42.205 78.66 42.205C78.4777 42.205 78.2966 42.1532 78.2575 42.09C78.2184 42.0267 78.0631 41.975 77.9125 41.975C77.7618 41.975 77.6066 41.9233 77.5675 41.86C77.5284 41.7967 77.2147 41.745 76.8706 41.745C76.5264 41.745 76.245 41.6932 76.245 41.63C76.245 41.5667 76.0742 41.515 75.8655 41.515C75.6567 41.515 75.4368 41.4681 75.3767 41.4106C75.2747 41.3135 72.023 41.1847 71.6211 41.2623ZM53.9959 46.7256C53.8714 46.801 53.6386 46.9919 53.4784 47.15C53.3183 47.3081 53.0452 47.5108 52.8712 47.6008C52.6973 47.6905 52.555 47.8069 52.555 47.8596C52.555 47.9119 52.4805 47.955 52.3894 47.955C52.1973 47.955 49.105 50.9881 49.105 51.1767C49.105 51.246 48.7945 51.6074 48.415 51.98C48.0355 52.3526 47.725 52.7123 47.725 52.7795C47.725 52.8471 47.5697 53.0644 47.38 53.2631C47.1902 53.4618 47.035 53.6688 47.035 53.7231C47.035 53.7775 46.8797 53.9844 46.69 54.1831C46.5002 54.3818 46.345 54.6026 46.345 54.6742C46.345 54.7458 46.2415 54.8789 46.115 54.97C45.9885 55.0611 45.885 55.2279 45.885 55.3403C45.885 55.453 45.8427 55.545 45.7912 55.545C45.6573 55.545 45.195 56.4452 45.195 56.7059C45.195 56.8264 45.1432 56.925 45.08 56.925C45.0167 56.925 44.965 57.0285 44.965 57.155C44.965 57.2815 44.9132 57.385 44.85 57.385C44.7867 57.385 44.735 57.4885 44.735 57.615C44.735 57.7415 44.6832 57.845 44.62 57.845C44.5567 57.845 44.505 57.9485 44.505 58.075C44.505 58.2015 44.4532 58.305 44.39 58.305C44.3267 58.305 44.275 58.4085 44.275 58.535C44.275 58.6615 44.2232 58.765 44.16 58.765C44.0967 58.765 44.045 58.9087 44.045 59.0847C44.045 59.2724 43.9501 59.4725 43.815 59.57C43.6798 59.6675 43.585 59.8676 43.585 60.0553C43.585 60.2312 43.5332 60.375 43.47 60.375C43.4067 60.375 43.355 60.5302 43.355 60.72C43.355 60.9097 43.3032 61.065 43.24 61.065C43.1767 61.065 43.125 61.2202 43.125 61.41C43.125 61.5998 43.0732 61.755 43.01 61.755C42.9467 61.755 42.895 61.8553 42.895 61.9781C42.895 62.1009 42.8432 62.2334 42.78 62.2725C42.7167 62.3116 42.665 62.5704 42.665 62.8475C42.665 63.1246 42.6132 63.3834 42.55 63.4225C42.4867 63.4616 42.435 63.6168 42.435 63.7675C42.435 63.9181 42.3832 64.0734 42.32 64.1125C42.2567 64.1516 42.205 64.4032 42.205 64.6714C42.205 64.9396 42.1581 65.2082 42.1006 65.2682C41.9859 65.3881 41.8922 66.1054 41.7892 67.6488C41.7522 68.2022 41.6817 68.655 41.6326 68.655C41.4287 68.655 41.2165 75.1542 41.4164 75.2776C41.4704 75.3112 41.515 75.7206 41.515 76.1875C41.515 76.6544 41.5667 77.0684 41.63 77.1075C41.6932 77.1466 41.745 77.5089 41.745 77.9125C41.745 78.3161 41.7967 78.6784 41.86 78.7175C41.9232 78.7566 41.975 78.9185 41.975 79.0774C41.975 79.7355 42.4189 79.8063 44.4475 79.4722C44.827 79.4095 45.5144 79.323 45.975 79.2799C46.4355 79.2367 46.8395 79.1571 46.8728 79.103C46.9062 79.0493 47.1086 79.005 47.3225 79.005C47.5364 79.005 47.7434 78.9532 47.7825 78.89C47.8216 78.8267 48.0027 78.775 48.185 78.775C48.3672 78.775 48.5484 78.7233 48.5875 78.66C48.6266 78.5967 48.7884 78.545 48.9474 78.545C49.5388 78.545 49.9226 76.7852 49.4603 76.1927C49.1501 75.7951 49.0357 69.983 49.314 68.77C49.3939 68.4221 49.4899 67.8529 49.5276 67.505C49.565 67.1571 49.6285 66.8466 49.6685 66.815C49.7631 66.7402 50.025 65.7277 50.025 65.4367C50.025 65.3131 50.1285 65.0276 50.255 64.8025C50.3815 64.5774 50.485 64.2134 50.485 63.994C50.485 63.7747 50.5367 63.595 50.6 63.595C50.6632 63.595 50.715 63.4915 50.715 63.365C50.715 63.2385 50.7667 63.135 50.83 63.135C50.8932 63.135 50.945 63.0315 50.945 62.905C50.945 62.7785 50.9967 62.675 51.06 62.675C51.1232 62.675 51.175 62.5197 51.175 62.33C51.175 62.1402 51.2267 61.985 51.29 61.985C51.3532 61.985 51.405 61.8815 51.405 61.755C51.405 61.6285 51.4567 61.525 51.52 61.525C51.5832 61.525 51.635 61.4215 51.635 61.295C51.635 61.1685 51.6781 61.065 51.7304 61.065C51.783 61.065 51.8995 60.9227 51.9892 60.7487C52.0792 60.5748 52.243 60.3322 52.3537 60.2097C52.4644 60.0869 52.555 59.9187 52.555 59.8359C52.555 59.7528 52.6067 59.685 52.67 59.685C52.7332 59.685 52.785 59.6068 52.785 59.5113C52.785 59.4159 52.9402 59.1755 53.13 58.9769C53.3197 58.7782 53.475 58.5459 53.475 58.4605C53.475 58.3749 53.5267 58.305 53.59 58.305C53.6532 58.305 53.705 58.2351 53.705 58.1495C53.705 58.0641 53.8602 57.8318 54.05 57.6331C54.2397 57.4344 54.395 57.226 54.395 57.1699C54.395 57.1136 54.602 56.8546 54.855 56.5938C55.108 56.333 55.315 56.0659 55.315 56.0001C55.315 55.9343 55.4231 55.7661 55.5553 55.6264C55.7609 55.4096 55.7845 55.2886 55.7169 54.7975C55.5941 53.9025 55.438 52.3583 55.3687 51.3475C55.334 50.8415 55.2589 50.324 55.202 50.1975C55.1451 50.071 55.0692 49.6311 55.0332 49.22C54.8141 46.7064 54.656 46.3263 53.9959 46.7256ZM54.5353 48.1275C54.581 48.6335 54.6747 49.358 54.744 49.7375C54.8757 50.458 55.0249 51.8132 55.1712 53.6187C55.2187 54.2038 55.2971 54.7437 55.346 54.8188C55.4768 55.0206 54.8259 56.1272 54.1405 56.8675C53.9649 57.0572 53.8208 57.2729 53.8205 57.3468C53.8203 57.4204 53.7777 57.498 53.7257 57.5193C53.6739 57.5402 53.4057 57.8939 53.13 58.305C52.8543 58.7161 52.586 59.0697 52.5343 59.0907C52.4822 59.112 52.44 59.1796 52.44 59.2408C52.44 59.3023 52.233 59.6574 51.98 60.03C51.727 60.4026 51.52 60.762 51.52 60.8287C51.52 60.8954 51.4682 60.95 51.405 60.95C51.3417 60.95 51.29 61.0535 51.29 61.18C51.29 61.3065 51.2382 61.41 51.175 61.41C51.1117 61.41 51.06 61.4827 51.06 61.5716C51.06 61.6604 50.949 61.958 50.8136 62.2328C50.6782 62.5077 50.5169 62.8619 50.4554 63.02C50.3935 63.1781 50.2975 63.3975 50.2415 63.5073C50.1857 63.6171 50.14 63.8377 50.14 63.9975C50.14 64.1573 50.0802 64.4037 50.0071 64.5452C49.7191 65.1026 49.68 65.2107 49.68 65.454C49.68 65.7199 49.4908 66.3909 49.3209 66.7273C49.2654 66.8371 49.22 67.1243 49.22 67.3656C49.22 67.6068 49.1731 67.8532 49.1156 67.9132C48.8586 68.1823 48.634 74.5692 48.8652 75.0375C48.9279 75.164 49.0072 75.5392 49.042 75.8712C49.0765 76.2033 49.136 76.7358 49.174 77.0543C49.2703 77.8662 49.1679 78.2 48.8221 78.2C48.6688 78.2 48.5116 78.2517 48.4725 78.315C48.4334 78.3782 48.2264 78.43 48.0125 78.43C47.7986 78.43 47.5916 78.4818 47.5525 78.545C47.5134 78.6083 47.3322 78.66 47.15 78.66C46.9677 78.66 46.7866 78.7117 46.7475 78.775C46.7084 78.8382 46.3714 78.89 45.9988 78.89C45.5825 78.89 45.2858 78.9455 45.2295 79.0337C45.1677 79.1303 44.816 79.1775 44.16 79.1775C43.6223 79.1778 42.9942 79.2212 42.7642 79.2741L42.3461 79.3707L42.2722 78.8716C42.0204 77.1739 41.9569 76.588 41.8562 75.0375C41.7346 73.1639 41.824 69.0356 41.9882 68.9342C42.0443 68.8997 42.09 68.4448 42.09 67.9236C42.09 67.4024 42.1368 66.9268 42.1943 66.8667C42.2518 66.8067 42.328 66.4987 42.3637 66.1825C42.5218 64.7841 42.5787 64.4509 42.6762 64.3483C42.7331 64.2882 42.78 64.0973 42.78 63.9239C42.78 63.7505 42.8317 63.5766 42.895 63.5375C42.9582 63.4984 43.01 63.2877 43.01 63.0692C43.01 62.8507 43.0617 62.5692 43.125 62.4436C43.1882 62.3179 43.2917 62.1121 43.355 61.9864C43.4182 61.8608 43.47 61.657 43.47 61.5333C43.47 61.4097 43.5217 61.2766 43.585 61.2375C43.6482 61.1984 43.7 61.0653 43.7 60.9417C43.7 60.818 43.7463 60.6271 43.8029 60.5173C43.8595 60.4075 44.0726 59.9552 44.2767 59.5125C44.4805 59.0697 44.7965 58.4027 44.9788 58.0301C45.161 57.6575 45.31 57.2824 45.31 57.1964C45.31 57.1104 45.3617 57.04 45.425 57.04C45.4882 57.04 45.54 56.9106 45.54 56.7525C45.54 56.5944 45.5917 56.465 45.655 56.465C45.7182 56.465 45.77 56.3874 45.77 56.2925C45.77 56.1976 45.8096 56.12 45.8579 56.12C45.9062 56.12 46.0319 55.9259 46.1371 55.6887C46.2423 55.4516 46.4617 55.1175 46.6241 54.9461C46.7869 54.7751 46.92 54.5939 46.9203 54.5436C46.9203 54.4936 47.0755 54.2714 47.265 54.05C47.4544 53.8286 47.6097 53.6064 47.6097 53.5561C47.61 53.5058 47.7359 53.3387 47.8897 53.1849C48.0435 53.0311 48.3152 52.7108 48.4935 52.4731C48.6717 52.2353 48.9802 51.8756 49.1789 51.6738C49.3775 51.472 49.688 51.1092 49.8689 50.8674C50.2676 50.3335 50.334 50.2645 50.7725 49.9272C50.9622 49.7812 51.428 49.3658 51.8075 49.0038C52.187 48.6421 52.6786 48.2209 52.9 48.068C53.1213 47.915 53.4577 47.6448 53.6475 47.4677C54.2432 46.9114 54.439 47.0568 54.5353 48.1275ZM90.965 66.4536C90.965 66.6448 91.0167 66.8334 91.08 66.8725C91.1432 66.9116 91.195 67.1186 91.195 67.3325C91.195 67.5464 91.2467 67.7534 91.31 67.7925C91.3732 67.8316 91.425 68.0386 91.425 68.2525C91.425 68.4664 91.4767 68.6734 91.54 68.7125C91.6032 68.7516 91.655 69.0653 91.655 69.4094C91.655 69.7535 91.7059 70.035 91.7677 70.035C91.9321 70.035 92.0385 69.5057 91.9474 69.1417C91.9039 68.9689 91.8401 68.6464 91.8056 68.425C91.7711 68.2036 91.6854 67.9512 91.6153 67.8644C91.5451 67.7773 91.5038 67.5547 91.5233 67.3699C91.5426 67.1847 91.5075 66.9714 91.4454 66.8955C91.383 66.8196 91.314 66.6321 91.2921 66.4789C91.2321 66.0569 90.965 66.0362 90.965 66.4536ZM91.8887 72.9962C91.8916 75.0775 91.9209 75.5748 92.0325 75.4285C92.1325 75.2971 92.1682 74.61 92.1578 73.0135C92.1403 70.326 92.1434 70.38 92 70.38C91.9267 70.38 91.8864 71.3264 91.8887 72.9962ZM101.115 73.025C101.114 74.29 101.131 74.449 101.205 73.8835C101.255 73.5017 101.255 72.803 101.206 72.331C101.125 71.5547 101.116 71.6214 101.115 73.025ZM100.915 74.98C100.853 75.0749 100.797 75.67 100.791 76.3025C100.785 76.935 100.714 77.6077 100.635 77.7975C100.553 77.9959 100.521 78.3282 100.561 78.5798C100.611 78.8983 100.58 79.0671 100.444 79.2019C100.328 79.3189 100.275 79.5225 100.302 79.7531C100.327 79.9652 100.279 80.1806 100.187 80.266C100.081 80.3652 100.053 80.5405 100.103 80.8042C100.155 81.0813 100.124 81.2469 99.9982 81.3731C99.9002 81.4712 99.82 81.6483 99.82 81.7664C99.82 81.8846 99.7651 82.0154 99.6981 82.0568C99.6311 82.0982 99.588 82.2434 99.602 82.3797C99.6161 82.5159 99.5609 82.7827 99.4796 82.9725C99.3979 83.1622 99.2913 83.421 99.2421 83.5475C99.1929 83.674 99.0443 84.0227 98.9115 84.3226C98.7786 84.6222 98.67 84.9427 98.67 85.0344C98.67 85.1262 98.6162 85.2348 98.5504 85.2754C98.4845 85.3162 98.4621 85.4484 98.5006 85.5698C98.5389 85.6908 98.5188 85.79 98.4555 85.79C98.3923 85.79 98.3077 85.9064 98.2678 86.0487C98.0743 86.737 96.9576 88.9749 96.6316 89.328C96.554 89.4119 96.4022 89.6724 96.2944 89.9067C96.1863 90.1407 95.952 90.5487 95.774 90.8132C95.5957 91.0777 95.45 91.3229 95.45 91.358C95.45 91.4431 95.1119 91.8614 94.7887 92.1765C94.6464 92.3154 94.5291 92.4747 94.5283 92.5307C94.5274 92.5868 94.3333 92.8521 94.097 93.1204C93.8607 93.3886 93.4932 93.8414 93.2802 94.1266C93.0675 94.4118 92.8475 94.645 92.7915 94.645C92.7357 94.645 92.69 94.7129 92.69 94.7957C92.69 94.9595 89.8863 97.75 89.7215 97.75C89.6661 97.75 89.5269 97.8535 89.4125 97.98C89.298 98.1065 89.1437 98.21 89.0698 98.21C88.9956 98.21 88.8096 98.344 88.6563 98.5079C88.5028 98.6717 88.1187 98.9934 87.8025 99.2229C87.4862 99.4523 87.2016 99.6676 87.17 99.7016C87.0837 99.7941 85.8987 100.51 85.8317 100.51C85.8 100.51 85.5577 100.654 85.2932 100.831C85.0287 101.007 84.5667 101.274 84.2662 101.424C83.9658 101.573 83.72 101.74 83.72 101.793C83.72 101.846 83.6165 101.89 83.49 101.89C83.3635 101.89 83.26 101.942 83.26 102.005C83.26 102.068 83.1338 102.12 82.9794 102.12C82.825 102.12 82.6666 102.172 82.6275 102.235C82.5884 102.298 82.4558 102.35 82.3331 102.35C82.2103 102.35 82.11 102.402 82.11 102.465C82.11 102.528 82.0096 102.58 81.8869 102.58C81.7641 102.58 81.6316 102.632 81.5925 102.695C81.5534 102.758 81.3677 102.81 81.1796 102.81C80.9864 102.81 80.8099 102.883 80.7734 102.978C80.7285 103.095 80.6084 103.125 80.3746 103.078C80.1636 103.036 80.04 103.059 80.04 103.141C80.04 103.212 79.9402 103.27 79.8183 103.27C79.6961 103.27 79.5213 103.345 79.4293 103.437C79.3376 103.529 79.2307 103.572 79.1919 103.533C79.0987 103.44 78.1934 103.728 77.9579 103.926C77.8564 104.011 77.6879 104.048 77.5839 104.008C77.3444 103.916 76.82 104.043 76.82 104.192C76.82 104.341 77.8205 104.339 77.9125 104.19C77.9516 104.127 78.1617 104.075 78.3794 104.075C78.597 104.075 78.775 104.023 78.775 103.96C78.775 103.897 78.8753 103.845 78.9981 103.845C79.1208 103.845 79.2534 103.793 79.2925 103.73C79.3316 103.667 79.5127 103.615 79.695 103.615C79.8773 103.615 80.0584 103.563 80.0975 103.5C80.1366 103.437 80.3209 103.385 80.5069 103.385C80.6929 103.385 80.845 103.333 80.845 103.27C80.845 103.207 81.0002 103.155 81.19 103.155C81.3797 103.155 81.535 103.103 81.535 103.04C81.535 102.977 81.6902 102.925 81.88 102.925C82.0697 102.925 82.225 102.873 82.225 102.81C82.225 102.747 82.3285 102.695 82.455 102.695C82.5815 102.695 82.685 102.643 82.685 102.58C82.685 102.517 82.8112 102.465 82.9656 102.465C83.12 102.465 83.2784 102.413 83.3175 102.35C83.3566 102.287 83.4776 102.235 83.5863 102.235C83.6952 102.235 83.8588 102.132 83.95 102.005C84.0411 101.878 84.2079 101.775 84.3203 101.775C84.433 101.775 84.525 101.723 84.525 101.66C84.525 101.597 84.6285 101.545 84.755 101.545C84.8815 101.545 84.985 101.493 84.985 101.43C84.985 101.367 85.0885 101.315 85.215 101.315C85.3415 101.315 85.445 101.263 85.445 101.2C85.445 101.137 85.5128 101.085 85.5959 101.085C85.6787 101.085 85.8469 100.994 85.9697 100.884C86.0921 100.773 86.3348 100.609 86.5087 100.519C86.6827 100.429 86.825 100.313 86.825 100.26C86.825 100.208 86.917 100.165 87.0297 100.165C87.1421 100.165 87.3088 100.062 87.4 99.935C87.4911 99.8085 87.6354 99.705 87.7203 99.705C87.8054 99.705 88.1271 99.4463 88.435 99.13C88.7429 98.8138 89.0646 98.555 89.1497 98.555C89.2345 98.555 89.3788 98.4515 89.47 98.325C89.5611 98.1985 89.7023 98.095 89.7839 98.095C89.9584 98.095 93.0795 94.9998 93.4944 94.415C93.6514 94.1936 93.9228 93.8624 94.0976 93.6793C94.2721 93.4959 94.415 93.2874 94.415 93.2158C94.415 93.1442 94.5185 93.0111 94.645 92.92C94.7715 92.8289 94.875 92.6897 94.875 92.6112C94.875 92.5325 94.9785 92.4126 95.105 92.345C95.2315 92.2774 95.335 92.1575 95.335 92.0788C95.335 92.0003 95.4385 91.8611 95.565 91.77C95.6915 91.6789 95.795 91.536 95.795 91.4523C95.795 91.3687 95.8985 91.1893 96.025 91.0536C96.1515 90.9179 96.255 90.7387 96.255 90.6559C96.255 90.5729 96.3067 90.505 96.37 90.505C96.4332 90.505 96.485 90.4015 96.485 90.275C96.485 90.1485 96.5247 90.045 96.573 90.045C96.6213 90.045 96.7475 89.8449 96.8535 89.6002C96.9593 89.3553 97.114 89.0836 97.1968 88.9965C97.4035 88.7786 98.095 87.404 98.095 87.2114C98.095 87.1254 98.1467 87.055 98.21 87.055C98.2732 87.055 98.325 86.9515 98.325 86.825C98.325 86.6985 98.3767 86.595 98.44 86.595C98.5032 86.595 98.555 86.4446 98.555 86.2609C98.555 86.0772 98.666 85.702 98.8014 85.4272C98.9368 85.1523 99.0981 84.7981 99.1596 84.64C99.2214 84.4819 99.3174 84.2625 99.3735 84.1527C99.4293 84.0429 99.475 83.8747 99.475 83.7789C99.475 83.6832 99.5267 83.605 99.59 83.605C99.6532 83.605 99.705 83.4497 99.705 83.26C99.705 83.0703 99.7567 82.915 99.82 82.915C99.8832 82.915 99.935 82.8282 99.935 82.7218C99.935 82.6157 99.9853 82.3699 100.047 82.1755C100.224 81.6192 100.525 80.3818 100.637 79.7525C100.693 79.4362 100.795 78.867 100.862 78.4875C101.117 77.0658 101.153 74.614 100.915 74.98ZM91.7406 75.7376C91.6935 75.7847 91.655 76.0964 91.655 76.4299C91.655 76.7634 91.6032 77.0684 91.54 77.1075C91.4767 77.1466 91.425 77.4053 91.425 77.6825C91.425 77.9596 91.3732 78.2184 91.31 78.2575C91.2467 78.2966 91.195 78.4815 91.195 78.6683C91.195 78.8552 91.1432 79.1108 91.08 79.2364C91.0167 79.3621 90.9132 79.5679 90.85 79.6936C90.7867 79.8192 90.735 80.023 90.735 80.1467C90.735 80.2703 90.6832 80.4034 90.62 80.4425C90.5567 80.4816 90.505 80.64 90.505 80.7944C90.505 80.9488 90.4532 81.075 90.39 81.075C90.3267 81.075 90.275 81.2302 90.275 81.42C90.275 81.6097 90.2232 81.765 90.16 81.765C90.0967 81.765 90.045 81.9202 90.045 82.11C90.045 82.2998 89.9932 82.455 89.93 82.455C89.8667 82.455 89.815 82.5585 89.815 82.685C89.815 82.8115 89.7632 82.915 89.7 82.915C89.6367 82.915 89.585 82.9949 89.585 83.0924C89.585 83.1898 89.4815 83.3807 89.355 83.5164C89.2285 83.6521 89.125 83.8474 89.125 83.95C89.125 84.0526 89.0215 84.2478 88.895 84.3835C88.7685 84.5192 88.665 84.7101 88.665 84.8076C88.665 84.9051 88.6132 84.985 88.55 84.985C88.4867 84.985 88.435 85.0885 88.435 85.215C88.435 85.3415 88.3832 85.445 88.32 85.445C88.2567 85.445 88.205 85.537 88.205 85.6497C88.205 85.7621 88.1015 85.9289 87.975 86.02C87.8485 86.1111 87.745 86.2572 87.745 86.3443C87.745 86.4314 87.5897 86.6476 87.4 86.825C87.2102 87.0024 87.055 87.2082 87.055 87.2824C87.055 87.4814 82.8276 91.655 82.6263 91.655C82.532 91.655 82.455 91.7068 82.455 91.77C82.455 91.8333 82.3851 91.885 82.2994 91.885C82.2141 91.885 81.9818 92.0402 81.7831 92.23C81.5844 92.4197 81.3441 92.575 81.2486 92.575C81.1532 92.575 81.075 92.6267 81.075 92.69C81.075 92.7533 80.983 92.805 80.8703 92.805C80.7579 92.805 80.5911 92.9085 80.5 93.035C80.4025 93.1701 80.2024 93.265 80.0147 93.265C79.8387 93.265 79.695 93.3167 79.695 93.38C79.695 93.4432 79.5754 93.495 79.429 93.495C79.283 93.495 79.0521 93.5985 78.9164 93.725C78.7807 93.8515 78.5898 93.955 78.4924 93.955C78.3949 93.955 78.315 94.0068 78.315 94.07C78.315 94.1333 78.2115 94.185 78.085 94.185C77.9585 94.185 77.855 94.2367 77.855 94.3C77.855 94.3633 77.6997 94.415 77.51 94.415C77.3202 94.415 77.165 94.4668 77.165 94.53C77.165 94.5932 77.0781 94.645 76.9718 94.645C76.7556 94.645 76.063 94.85 75.7577 95.0041C75.6478 95.0596 75.3793 95.105 75.1608 95.105C74.9423 95.105 74.7316 95.1568 74.6925 95.22C74.6534 95.2833 74.4691 95.335 74.2831 95.335C74.0971 95.335 73.945 95.379 73.945 95.4328C73.945 95.7527 67.7496 95.7527 67.5518 95.4328C67.5185 95.379 67.2646 95.335 66.9875 95.335C66.7103 95.335 66.4516 95.2833 66.4125 95.22C66.3734 95.1568 66.1891 95.105 66.0031 95.105C65.8171 95.105 65.665 95.0533 65.665 94.99C65.665 94.9268 65.487 94.875 65.2694 94.875C65.0517 94.875 64.8416 94.8232 64.8025 94.76C64.7634 94.6968 64.6308 94.645 64.5081 94.645C64.3853 94.645 64.285 94.5932 64.285 94.53C64.285 94.4668 64.1297 94.415 63.94 94.415C63.7502 94.415 63.595 94.3633 63.595 94.3C63.595 94.2367 63.4946 94.185 63.3719 94.185C63.2491 94.185 63.1166 94.1333 63.0775 94.07C63.0384 94.0068 62.88 93.955 62.7256 93.955C62.5712 93.955 62.4447 93.9162 62.4441 93.8688C62.443 93.7655 61.8861 93.495 61.6745 93.495C61.5923 93.495 61.525 93.4432 61.525 93.38C61.525 93.3167 61.4085 93.2638 61.2662 93.2624C61.1239 93.261 60.8781 93.1586 60.72 93.035C60.5618 92.9114 60.3793 92.809 60.314 92.8076C60.249 92.8062 60.1211 92.7015 60.03 92.575C59.9388 92.4485 59.7928 92.345 59.7057 92.345C59.6186 92.345 59.4024 92.1898 59.225 92C59.0476 91.8102 58.8417 91.655 58.7673 91.655C58.6928 91.655 58.4332 91.448 58.19 91.195C57.9467 90.942 57.6915 90.735 57.6222 90.735C57.4456 90.735 54.855 88.1136 54.855 87.935C54.855 87.8545 54.6491 87.6107 54.3976 87.3931C54.146 87.1755 53.939 86.9127 53.9376 86.8092C53.9361 86.7057 53.7852 86.5016 53.6021 86.3558C53.4189 86.21 53.2927 86.0295 53.3214 85.9542C53.3505 85.8791 53.2501 85.7204 53.0989 85.6014C52.9477 85.4824 52.8453 85.3211 52.8715 85.2426C52.8977 85.1641 52.8373 85.0687 52.737 85.0301C52.6369 84.9919 52.555 84.8625 52.555 84.7426C52.555 84.623 52.5032 84.525 52.44 84.525C52.3767 84.525 52.325 84.4451 52.325 84.3476C52.325 84.2501 52.2215 84.0592 52.095 83.9235C51.9685 83.7878 51.865 83.6087 51.865 83.5259C51.865 83.4428 51.8184 83.375 51.7612 83.375C51.7043 83.375 51.6033 83.2197 51.5372 83.03C51.4711 82.8402 51.3624 82.685 51.296 82.685C51.2293 82.685 51.175 82.5297 51.175 82.34C51.175 82.1502 51.1232 81.995 51.06 81.995C50.9967 81.995 50.945 81.9277 50.945 81.8455C50.945 81.4516 50.6509 81.0767 50.3412 81.0759C50.1673 81.0753 50.025 81.1267 50.025 81.19C50.025 81.2532 49.9209 81.305 49.7935 81.305C49.5699 81.305 49.4589 81.3458 48.9052 81.6322C48.7637 81.7052 48.5432 81.765 48.415 81.765C48.2867 81.765 48.0921 81.8107 47.9823 81.8665C47.4789 82.1226 47.1626 82.2146 46.575 82.2756C45.2746 82.4107 44.9011 82.4711 44.6706 82.5844C44.4184 82.708 43.2558 82.6643 43.0264 82.5226C42.7041 82.3233 42.205 82.7186 42.205 83.1732C42.205 83.4107 42.2567 83.605 42.32 83.605C42.3832 83.605 42.435 83.7085 42.435 83.835C42.435 83.9615 42.4867 84.065 42.55 84.065C42.6132 84.065 42.665 84.184 42.665 84.3295C42.665 84.6325 42.9102 85.2127 43.0387 85.2141C43.0862 85.2147 43.125 85.3702 43.125 85.56C43.125 85.7497 43.1767 85.905 43.24 85.905C43.3032 85.905 43.355 86.0246 43.355 86.1709C43.355 86.317 43.4585 86.5479 43.585 86.6835C43.7115 86.8193 43.815 87.0619 43.815 87.2226C43.815 87.3833 43.8667 87.515 43.93 87.515C43.9932 87.515 44.045 87.6185 44.045 87.745C44.045 87.8715 44.0967 87.975 44.16 87.975C44.2232 87.975 44.275 88.0785 44.275 88.205C44.275 88.3315 44.3267 88.435 44.39 88.435C44.4532 88.435 44.505 88.5385 44.505 88.665C44.505 88.7915 44.5567 88.895 44.62 88.895C44.6832 88.895 44.735 88.987 44.735 89.0997C44.735 89.2121 44.8385 89.3789 44.965 89.47C45.1001 89.5675 45.195 89.7676 45.195 89.9553C45.195 90.1312 45.2467 90.275 45.31 90.275C45.3732 90.275 45.425 90.3428 45.425 90.4259C45.425 90.5087 45.5155 90.6769 45.6262 90.7997C45.7369 90.9222 45.9008 91.1648 45.9908 91.3388C46.0805 91.5127 46.1969 91.655 46.2495 91.655C46.3018 91.655 46.345 91.747 46.345 91.8597C46.345 91.9721 46.4485 92.1389 46.575 92.23C46.7015 92.3211 46.805 92.4603 46.805 92.5391C46.805 92.6181 47.1155 93.0048 47.495 93.3987C47.8745 93.7926 48.185 94.16 48.185 94.2149C48.185 94.2698 48.4437 94.5671 48.76 94.875C49.0762 95.1829 49.335 95.4848 49.335 95.5457C49.335 95.7289 51.9673 98.325 52.153 98.325C52.2476 98.325 52.325 98.3767 52.325 98.44C52.325 98.5033 52.4066 98.555 52.5064 98.555C52.6064 98.555 52.8867 98.762 53.13 99.015C53.3732 99.268 53.6423 99.475 53.728 99.475C53.8139 99.475 53.9588 99.5785 54.05 99.705C54.1411 99.8315 54.2742 99.935 54.3458 99.935C54.4174 99.935 54.6382 100.09 54.8369 100.28C55.0355 100.47 55.2647 100.625 55.346 100.625C55.4274 100.625 55.5688 100.729 55.66 100.855C55.7511 100.981 55.9179 101.085 56.0303 101.085C56.143 101.085 56.235 101.137 56.235 101.2C56.235 101.263 56.3385 101.315 56.465 101.315C56.5915 101.315 56.695 101.367 56.695 101.43C56.695 101.493 56.7985 101.545 56.925 101.545C57.0515 101.545 57.155 101.589 57.155 101.642C57.155 101.695 57.4008 101.856 57.7012 102C58.0017 102.143 58.3375 102.306 58.4473 102.363C58.5571 102.419 58.7253 102.465 58.821 102.465C58.9168 102.465 58.995 102.517 58.995 102.58C58.995 102.643 59.0985 102.695 59.225 102.695C59.3515 102.695 59.455 102.747 59.455 102.81C59.455 102.873 59.5553 102.925 59.6781 102.925C59.8008 102.925 59.9334 102.977 59.9725 103.04C60.0116 103.103 60.1927 103.155 60.375 103.155C60.5573 103.155 60.7384 103.207 60.7775 103.27C60.8166 103.333 60.9718 103.385 61.1225 103.385C61.2731 103.385 61.4284 103.437 61.4675 103.5C61.5066 103.563 61.6391 103.615 61.7619 103.615C61.8846 103.615 61.985 103.667 61.985 103.73C61.985 103.793 62.1629 103.845 62.3806 103.845C62.5982 103.845 62.8084 103.897 62.8475 103.96C62.8866 104.023 63.0709 104.075 63.2569 104.075C63.4429 104.075 63.595 104.127 63.595 104.19C63.595 104.253 63.8247 104.305 64.1056 104.305C64.3865 104.305 64.6441 104.35 64.678 104.405C64.7119 104.46 64.9868 104.539 65.2886 104.582C66.5522 104.759 67.7353 104.892 68.6262 104.956L69.575 105.024V105.45C69.575 105.879 69.6871 105.993 70.3021 106.192C70.5666 106.277 70.955 106.075 70.955 105.853C70.955 105.758 71.0613 105.685 71.1993 105.685C71.4078 105.685 71.4339 105.636 71.3767 105.35L71.3097 105.016L72.4836 104.95C74.8601 104.817 76.7323 104.561 76.6716 104.376C76.6092 104.185 75.8307 104.151 75.6616 104.332C75.5619 104.438 75.302 104.473 74.8175 104.443C74.4262 104.419 73.9654 104.462 73.7725 104.54C73.3338 104.719 68.6581 104.701 67.7062 104.518C67.3425 104.448 66.8141 104.416 66.5321 104.448C66.248 104.48 66.0028 104.456 65.9821 104.394C65.9617 104.333 65.6998 104.255 65.3999 104.221C65.1 104.187 64.8269 104.115 64.793 104.06C64.7591 104.005 64.5046 103.96 64.2275 103.96C63.9503 103.96 63.6916 103.908 63.6525 103.845C63.6134 103.782 63.4323 103.73 63.25 103.73C63.0677 103.73 62.8866 103.678 62.8475 103.615C62.8084 103.552 62.6753 103.5 62.5516 103.5C62.428 103.5 62.2371 103.454 62.1273 103.399C61.5224 103.091 61.2935 103.016 61.1386 103.075C61.044 103.112 60.9048 103.067 60.8292 102.976C60.7536 102.884 60.5719 102.81 60.4253 102.81C60.2787 102.81 60.1266 102.758 60.0875 102.695C60.0484 102.632 59.9158 102.58 59.7931 102.58C59.6703 102.58 59.57 102.528 59.57 102.465C59.57 102.402 59.4972 102.35 59.4084 102.35C59.2661 102.35 58.7379 102.119 58.0175 101.741C57.891 101.674 57.5805 101.513 57.3275 101.381C57.0745 101.25 56.8416 101.116 56.81 101.084C56.7784 101.051 56.5067 100.9 56.2062 100.749C55.9058 100.598 55.66 100.43 55.66 100.377C55.66 100.324 55.5953 100.278 55.5162 100.275C55.4372 100.273 55.1934 100.118 54.9743 99.9304C54.7552 99.7432 54.5287 99.59 54.4703 99.59C54.4122 99.59 54.2808 99.4968 54.1785 99.3833C54.0761 99.2697 53.8113 99.0521 53.59 98.9C53.3686 98.7479 53.1038 98.5303 53.0015 98.4167C52.8991 98.3032 52.7352 98.21 52.6372 98.21C52.5394 98.21 52.442 98.1692 52.4207 98.1194C52.3997 98.0697 52.1499 97.8498 51.8658 97.6307C51.2885 97.1859 50.6233 96.5152 50.1601 95.9117C49.9908 95.6912 49.6898 95.3456 49.4911 95.1438C49.2924 94.942 48.9819 94.5792 48.8014 94.3374C48.6208 94.0953 48.3425 93.7681 48.183 93.61C48.0234 93.4519 47.7132 93.0896 47.4938 92.805C47.2742 92.5204 47.0036 92.1872 46.8924 92.0647C46.7811 91.9419 46.69 91.7737 46.69 91.6909C46.69 91.6078 46.6509 91.54 46.6031 91.54C46.5551 91.54 46.4516 91.3945 46.3729 91.2166C46.2944 91.0386 46.1394 90.7928 46.0287 90.6703C45.918 90.5478 45.7703 90.3181 45.7001 90.16C45.63 90.0019 45.454 89.6396 45.3094 89.355C44.3905 87.5495 43.8486 86.4116 43.5571 85.675C43.4944 85.5169 43.3975 85.2975 43.3415 85.1877C43.2857 85.0779 43.24 84.9097 43.24 84.8139C43.24 84.7182 43.1882 84.64 43.125 84.64C43.0617 84.64 43.01 84.51 43.01 84.3511C43.01 84.1921 42.9582 83.9592 42.895 83.8336C42.8317 83.7079 42.7282 83.5021 42.665 83.3764C42.6017 83.2508 42.55 83.1252 42.55 83.097C42.55 83.0688 43.0287 83.0191 43.6137 82.9866C45.0843 82.9052 45.9226 82.7977 46.0517 82.6744C46.1118 82.6169 46.4321 82.57 46.7636 82.57C47.0951 82.57 47.3984 82.5182 47.4375 82.455C47.4766 82.3917 47.6577 82.34 47.84 82.34C48.0222 82.34 48.2034 82.2882 48.2425 82.225C48.2816 82.1618 48.4147 82.11 48.5383 82.11C48.7554 82.11 48.8675 82.0686 49.4198 81.7828C49.5612 81.7098 49.7769 81.65 49.8988 81.65C50.021 81.65 50.1423 81.5859 50.1684 81.5074C50.2308 81.3202 50.6 81.6756 50.6 81.9225C50.6 82.0183 50.6517 82.1284 50.715 82.1675C50.7782 82.2066 50.83 82.365 50.83 82.5194C50.83 82.6738 50.8719 82.8 50.9234 82.8C50.9749 82.8 51.0881 82.9811 51.175 83.2025C51.2618 83.4239 51.3751 83.605 51.4265 83.605C51.478 83.605 51.52 83.6826 51.52 83.7775C51.52 83.8724 51.5657 83.95 51.6215 83.95C51.6775 83.95 51.752 84.0406 51.7871 84.1513C51.8494 84.3482 52.2111 84.9861 52.325 85.1C52.3566 85.1316 52.4822 85.3386 52.6041 85.56C52.8583 86.0214 53.4718 86.8785 53.8157 87.2522C53.9445 87.3922 54.05 87.5515 54.05 87.6064C54.05 87.8019 57.1136 90.8284 58.0175 91.5259C58.5235 91.9163 59.0668 92.3372 59.225 92.4614C59.3831 92.5854 59.5582 92.6877 59.614 92.6886C59.6697 92.6894 59.7991 92.7814 59.9015 92.8933C60.0826 93.0913 60.2525 93.1802 61.9275 93.9527C62.3702 94.1571 62.8225 94.3704 62.9323 94.4271C63.0421 94.4837 63.2103 94.53 63.306 94.53C63.4018 94.53 63.48 94.5818 63.48 94.645C63.48 94.7083 63.6062 94.76 63.7606 94.76C63.915 94.76 64.0734 94.8118 64.1125 94.875C64.1516 94.9382 64.3068 94.99 64.4575 94.99C64.6081 94.99 64.7634 95.0417 64.8025 95.105C64.8416 95.1683 65.0227 95.22 65.205 95.22C65.3872 95.22 65.5684 95.2718 65.6075 95.335C65.6466 95.3983 65.8464 95.45 66.0514 95.45C66.2564 95.45 66.4731 95.4966 66.5332 95.5532C66.6991 95.7099 67.5596 95.8212 68.7306 95.8378C69.3099 95.8459 69.8231 95.8913 69.8711 95.9388C69.9732 96.0397 71.4601 96.0566 71.5584 95.958C71.5952 95.9212 72.0826 95.8775 72.6414 95.8608C73.8081 95.826 74.7276 95.6944 74.817 95.5498C74.8509 95.4949 75.0536 95.45 75.2675 95.45C75.4814 95.45 75.6884 95.3983 75.7275 95.335C75.7666 95.2718 75.9477 95.22 76.13 95.22C76.3122 95.22 76.4934 95.1683 76.5325 95.105C76.5716 95.0417 76.7268 94.99 76.8775 94.99C77.0281 94.99 77.1834 94.9382 77.2225 94.875C77.2616 94.8118 77.3887 94.76 77.5051 94.76C77.6908 94.76 77.9763 94.6275 79.235 93.9573C79.7804 93.6669 79.9224 93.61 80.1041 93.61C80.2041 93.61 80.5118 93.4548 80.7875 93.265C81.0632 93.0752 81.3265 92.92 81.3725 92.92C81.4185 92.92 81.7198 92.7196 82.0418 92.4747C82.3638 92.2297 82.6841 92.0098 82.7534 91.9859C82.823 91.9621 83.3114 91.5544 83.8393 91.08C86.2951 88.8734 87.9146 86.992 88.6862 85.4499C88.8935 85.0362 89.0896 84.6716 89.1227 84.64C89.2538 84.5138 90.0961 82.875 90.3046 82.34C90.3664 82.1819 90.4624 81.9625 90.5185 81.8527C90.5743 81.7429 90.62 81.552 90.62 81.4283C90.62 81.3047 90.6717 81.1716 90.735 81.1325C90.7982 81.0934 90.85 80.9381 90.85 80.7875C90.85 80.6368 90.906 80.479 90.9742 80.4367C91.0426 80.3945 91.0676 80.2361 91.0297 80.0848C90.9914 79.9322 91.0118 79.81 91.0757 79.81C91.1389 79.81 91.2246 79.6677 91.2663 79.4937C91.3077 79.3198 91.3922 79.1134 91.4537 79.0352C91.5153 78.957 91.5325 78.7609 91.492 78.599C91.4425 78.4027 91.4796 78.244 91.6041 78.1195C91.7151 78.0085 91.7682 77.8199 91.7358 77.6515C91.7061 77.4962 91.7533 77.2328 91.8401 77.0658C92.0583 76.6478 91.9727 75.5055 91.7406 75.7376Z" fill="#FFD336" fill-opacity="0.82"/>
<path fill-rule="evenodd" clip-rule="evenodd" d="M57.2148 15.5213C57.1768 15.5828 57.2303 15.7973 57.3338 15.9974C57.4761 16.2728 57.5126 16.5968 57.4825 17.3233C57.4586 17.8986 57.4888 18.3005 57.5575 18.3232C57.6276 18.3468 57.6748 19.0983 57.678 20.2495C57.682 21.5254 57.7317 22.2493 57.8321 22.4825C57.9427 22.7395 57.9703 23.4657 57.9407 25.3285C57.9151 26.9396 57.9422 27.8432 58.0166 27.8682C58.0899 27.8927 58.1325 28.8952 58.1325 30.5998C58.1325 32.2635 58.1765 33.3238 58.2475 33.3744C58.3199 33.4262 58.3625 34.7679 58.3625 36.9969C58.3625 39.2256 58.405 40.5683 58.4775 40.6203C58.5482 40.6712 58.5885 41.5806 58.5819 42.9778C58.575 44.5062 58.6126 45.2795 58.6968 45.3344C58.903 45.469 58.9338 54.9277 58.729 55.2434C58.6138 55.4211 58.5853 55.7563 58.6238 56.4762C58.6583 57.1179 58.629 57.5543 58.5402 57.7202C58.4453 57.8976 58.4071 58.7472 58.4157 60.498C58.4234 62.1138 58.3832 63.1039 58.3033 63.2534C58.2225 63.4044 58.1661 64.9129 58.1434 67.5369C58.1242 69.7647 58.0692 71.7816 58.0215 72.0187C57.9522 72.3629 57.9695 72.45 58.106 72.45C58.3668 72.45 60.03 70.6333 60.03 70.3481C60.03 70.2966 60.2778 69.8818 60.5805 69.4261C60.8833 68.9704 61.3028 68.2352 61.5126 67.7925C61.7225 67.3498 61.9404 66.8975 61.9971 66.7877C62.0537 66.6779 62.1 66.487 62.1 66.3633C62.1 66.2397 62.146 66.11 62.2023 66.0753C62.2584 66.0405 62.3323 65.8435 62.3665 65.6374C62.4004 65.4313 62.4875 65.0296 62.56 64.745C62.6324 64.4604 62.7172 64.0464 62.7486 63.825C62.7799 63.6036 62.8371 63.3449 62.8757 63.25C62.9921 62.9636 63.2589 60.4771 63.2463 59.8C63.2396 59.4521 63.1896 58.1584 63.1353 56.925C63.0807 55.6916 63.0392 51.8104 63.043 48.3C63.047 44.6608 62.9921 40.9785 62.9156 39.7325C62.84 38.5075 62.7897 35.2369 62.8006 32.2874C62.8133 28.842 62.7794 26.9773 62.7023 26.8824C62.6376 26.8028 62.5563 26.5046 62.5215 26.22C62.487 25.9354 62.401 25.4179 62.3308 25.07C62.2607 24.7221 62.1744 24.2431 62.1394 24.0054C62.1043 23.7679 62.0296 23.5448 61.9729 23.51C61.9163 23.4749 61.87 23.2714 61.87 23.0575C61.87 22.8436 61.8182 22.6366 61.755 22.5975C61.6917 22.5584 61.64 22.4313 61.64 22.3149C61.64 22.1984 61.4847 21.8083 61.295 21.4475C61.1052 21.0867 60.95 20.7193 60.95 20.6307C60.95 20.5424 60.8982 20.47 60.835 20.47C60.7717 20.47 60.72 20.3665 60.72 20.24C60.72 20.1135 60.6682 20.01 60.605 20.01C60.5417 20.01 60.4903 19.9453 60.4909 19.8662C60.492 19.692 59.5818 17.8563 59.34 17.5458C59.2451 17.4239 58.9556 17.0876 58.6966 16.7983C58.4378 16.5091 58.1014 16.1253 57.9491 15.9456C57.6072 15.5417 57.3088 15.3692 57.2148 15.5213ZM71.6456 41.6872C71.4584 41.7875 71.4411 41.8402 71.5576 41.9572C71.6645 42.0644 71.6999 42.671 71.6921 44.2813C71.6864 45.4796 71.7238 46.46 71.7755 46.46C71.8273 46.46 71.8836 47.3225 71.9009 48.3768L71.9325 50.2935L72.2775 50.4065C72.4672 50.4686 72.6498 50.5606 72.6832 50.6112C72.7162 50.6615 73.0785 50.7001 73.4881 50.6969C74.3544 50.69 75.2203 50.809 75.3767 50.9568C75.4368 51.0134 75.6277 51.06 75.8011 51.06C75.9745 51.06 76.1484 51.1117 76.1875 51.175C76.2266 51.2382 76.4077 51.29 76.59 51.29C76.7723 51.29 76.9534 51.3418 76.9925 51.405C77.0316 51.4683 77.1647 51.52 77.2883 51.52C77.412 51.52 77.6028 51.5657 77.7127 51.6215C77.8225 51.6775 78.0677 51.7871 78.2575 51.865C78.4472 51.9429 78.6925 52.0524 78.8023 52.1085C78.9121 52.1643 79.0803 52.21 79.176 52.21C79.2718 52.21 79.35 52.2491 79.35 52.2968C79.35 52.3448 79.5052 52.4483 79.695 52.5268C79.8847 52.6056 80.1952 52.7344 80.385 52.8132C80.5747 52.8917 80.73 52.9952 80.73 53.0432C80.73 53.0909 80.8335 53.13 80.96 53.13C81.0865 53.13 81.19 53.1754 81.19 53.2309C81.19 53.2867 81.3452 53.3965 81.535 53.475C81.7247 53.5535 81.88 53.6633 81.88 53.7191C81.88 53.7746 81.9355 53.82 82.003 53.82C82.1152 53.82 82.9455 54.353 83.3724 54.6989C83.4687 54.7771 83.7562 55.0123 84.0115 55.2216C84.2665 55.4311 84.5719 55.6801 84.69 55.775C85.2955 56.2617 87.2959 58.4151 87.3888 58.6799C87.4141 58.7526 87.5305 58.9148 87.6475 59.0401C87.7643 59.1658 87.86 59.3064 87.86 59.3529C87.86 59.3992 88 59.6039 88.1714 59.8075C88.3424 60.0107 88.5925 60.3899 88.7268 60.6498C88.8614 60.9097 89.0784 61.3094 89.2098 61.5379C89.6034 62.2236 89.9843 63.0203 90.3029 63.825C90.3655 63.9831 90.4624 64.2025 90.5185 64.3123C90.5743 64.4221 90.62 64.565 90.62 64.6297C90.62 64.6944 90.7292 64.9796 90.8624 65.2634C90.9958 65.5471 91.0768 65.8527 91.0423 65.9424C91.0078 66.0324 91.0538 66.1345 91.1447 66.1693C91.2355 66.2043 91.31 66.3607 91.31 66.5171C91.31 66.6735 91.3652 66.8357 91.4328 66.8774C91.5003 66.9191 91.5409 67.1232 91.523 67.3313C91.5052 67.5392 91.5472 67.7798 91.6165 67.8658C91.791 68.0826 91.912 68.8117 91.9094 69.6325C91.9083 70.0189 91.9641 70.3576 92.0359 70.4021C92.2403 70.5286 92.236 75.076 92.0313 75.4167C91.9232 75.5967 91.8968 75.8419 91.9482 76.1858C92.0003 76.5336 91.971 76.797 91.8534 77.0325C91.7596 77.2205 91.707 77.5002 91.7364 77.654C91.768 77.8199 91.7142 78.0094 91.6041 78.1195C91.4796 78.244 91.4425 78.4027 91.492 78.599C91.5325 78.7609 91.5153 78.957 91.4537 79.0352C91.3922 79.1134 91.3077 79.3198 91.2663 79.4938C91.2246 79.6677 91.1389 79.81 91.0757 79.81C91.0119 79.81 90.9914 79.9322 91.0297 80.0848C91.0676 80.2361 91.0426 80.3945 90.9742 80.4367C90.9061 80.479 90.85 80.6368 90.85 80.7875C90.85 80.9381 90.7982 81.0934 90.735 81.1325C90.6717 81.1716 90.62 81.3047 90.62 81.4283C90.62 81.552 90.5743 81.7429 90.5185 81.8527C90.4624 81.9625 90.3664 82.1819 90.3046 82.34C90.0962 82.875 89.2538 84.5138 89.1227 84.64C89.0896 84.6716 88.8936 85.0362 88.6863 85.4499C87.9146 86.992 86.2951 88.8734 83.8393 91.08C83.3115 91.5544 82.823 91.962 82.7534 91.9859C82.6841 92.0098 82.3639 92.2297 82.0419 92.4747C81.7199 92.7196 81.4186 92.92 81.3726 92.92C81.3266 92.92 81.0632 93.0752 80.7875 93.265C80.5118 93.4547 80.2041 93.61 80.1041 93.61C79.8982 93.61 79.873 93.6218 78.332 94.4351C77.9936 94.6139 77.6215 94.76 77.5051 94.76C77.3887 94.76 77.2616 94.8117 77.2225 94.875C77.1834 94.9382 77.0281 94.99 76.8775 94.99C76.7268 94.99 76.5716 95.0417 76.5325 95.105C76.4934 95.1682 76.3123 95.22 76.13 95.22C75.9477 95.22 75.7666 95.2717 75.7275 95.335C75.6884 95.3982 75.4814 95.45 75.2675 95.45C75.0536 95.45 74.8509 95.4948 74.817 95.5498C74.7276 95.6944 73.8081 95.826 72.6415 95.8608C72.0826 95.8775 71.5953 95.9212 71.5585 95.958C71.4601 96.0566 69.9732 96.0397 69.8711 95.9387C69.8231 95.8913 69.3099 95.8459 68.7306 95.8378C67.5596 95.8212 66.6991 95.7099 66.5332 95.5532C66.4732 95.4966 66.2564 95.45 66.0514 95.45C65.8464 95.45 65.6466 95.3982 65.6075 95.335C65.5684 95.2717 65.3873 95.22 65.205 95.22C65.0227 95.22 64.8416 95.1682 64.8025 95.105C64.7634 95.0417 64.6081 94.99 64.4575 94.99C64.3068 94.99 64.1516 94.9382 64.1125 94.875C64.0734 94.8117 63.915 94.76 63.7606 94.76C63.6062 94.76 63.48 94.7082 63.48 94.645C63.48 94.5817 63.4018 94.53 63.3061 94.53C63.2103 94.53 63.0421 94.4837 62.9323 94.4271C62.8225 94.3704 62.3702 94.1571 61.9275 93.9527C60.2525 93.1802 60.0826 93.0913 59.9015 92.8933C59.7991 92.7814 59.6698 92.6894 59.614 92.6886C59.5582 92.6877 59.3831 92.5854 59.225 92.4614C59.0669 92.3372 58.5235 91.9163 58.0175 91.5259C57.1136 90.8284 54.05 87.8019 54.05 87.6064C54.05 87.5515 53.9445 87.3922 53.8157 87.2522C53.4718 86.8785 52.8583 86.0214 52.6041 85.56C52.4823 85.3386 52.3566 85.1316 52.325 85.1C52.2111 84.9861 51.8495 84.3482 51.7871 84.1513C51.752 84.0406 51.6775 83.95 51.6215 83.95C51.5657 83.95 51.52 83.8724 51.52 83.7775C51.52 83.6826 51.478 83.605 51.4266 83.605C51.3751 83.605 51.2618 83.4239 51.175 83.2025C51.0882 82.9811 50.9749 82.8 50.9234 82.8C50.872 82.8 50.83 82.6738 50.83 82.5194C50.83 82.365 50.7782 82.2066 50.715 82.1675C50.6517 82.1284 50.6 82.0183 50.6 81.9225C50.6 81.6756 50.2308 81.3202 50.1684 81.5074C50.1423 81.5859 50.021 81.65 49.8988 81.65C49.7769 81.65 49.5742 81.7017 49.4486 81.765C49.3229 81.8282 49.1171 81.9318 48.9914 81.995C48.8658 82.0583 48.662 82.11 48.5383 82.11C48.4147 82.11 48.2816 82.1618 48.2425 82.225C48.2034 82.2882 48.0223 82.34 47.84 82.34C47.6577 82.34 47.4766 82.3917 47.4375 82.455C47.3984 82.5182 47.0951 82.57 46.7636 82.57C46.4321 82.57 46.1118 82.6169 46.0517 82.6744C45.9226 82.7977 45.0843 82.9052 43.6137 82.9866C43.0287 83.0191 42.55 83.0688 42.55 83.097C42.55 83.1252 42.6017 83.2508 42.665 83.3764C42.7282 83.5021 42.8317 83.7079 42.895 83.8336C42.9582 83.9592 43.01 84.1921 43.01 84.3511C43.01 84.51 43.0617 84.64 43.125 84.64C43.1882 84.64 43.24 84.7182 43.24 84.8139C43.24 84.9097 43.2857 85.0779 43.3415 85.1877C43.3975 85.2975 43.4944 85.5169 43.5571 85.675C43.8486 86.4116 44.3906 87.5495 45.3094 89.355C45.454 89.6396 45.63 90.0019 45.7001 90.16C45.7703 90.3181 45.9181 90.5478 46.0287 90.6703C46.1394 90.7928 46.2944 91.0386 46.3729 91.2166C46.4517 91.3945 46.5552 91.54 46.6032 91.54C46.6509 91.54 46.69 91.6078 46.69 91.6909C46.69 91.7737 46.7811 91.9419 46.8924 92.0647C47.0037 92.1872 47.2742 92.5204 47.4938 92.805C47.7132 93.0896 48.0234 93.4519 48.183 93.61C48.3425 93.7681 48.6208 94.0953 48.8014 94.3374C48.9819 94.5792 49.2924 94.942 49.4911 95.1438C49.6898 95.3456 49.9908 95.6912 50.1601 95.9117C50.6233 96.5152 51.2886 97.1859 51.8659 97.6307C52.1499 97.8498 52.3997 98.0697 52.4207 98.1194C52.442 98.1692 52.5395 98.21 52.6372 98.21C52.7353 98.21 52.8991 98.3031 53.0015 98.4167C53.1038 98.5303 53.3686 98.7479 53.59 98.9C53.8114 99.0521 54.0762 99.2697 54.1785 99.3833C54.2809 99.4968 54.4122 99.59 54.4703 99.59C54.5287 99.59 54.7552 99.7432 54.9743 99.9304C55.1934 100.118 55.4372 100.273 55.5162 100.275C55.5953 100.278 55.66 100.324 55.66 100.377C55.66 100.43 55.9058 100.598 56.2062 100.749C56.5067 100.9 56.7784 101.051 56.81 101.084C56.8416 101.116 57.0745 101.25 57.3275 101.381C57.5805 101.513 57.891 101.674 58.0175 101.74C58.738 102.119 59.2661 102.35 59.4084 102.35C59.4973 102.35 59.57 102.402 59.57 102.465C59.57 102.528 59.6703 102.58 59.7931 102.58C59.9159 102.58 60.0484 102.632 60.0875 102.695C60.1266 102.758 60.2787 102.81 60.4253 102.81C60.5719 102.81 60.7536 102.884 60.8292 102.976C60.9049 103.067 61.044 103.112 61.1386 103.075C61.2936 103.016 61.5224 103.091 62.1273 103.399C62.2371 103.454 62.428 103.5 62.5517 103.5C62.6753 103.5 62.8084 103.552 62.8475 103.615C62.8866 103.678 63.0677 103.73 63.25 103.73C63.4323 103.73 63.6134 103.782 63.6525 103.845C63.6916 103.908 63.9503 103.96 64.2275 103.96C64.5046 103.96 64.7591 104.005 64.793 104.06C64.8269 104.115 65.1 104.187 65.3999 104.221C65.6998 104.255 65.9617 104.333 65.9821 104.394C66.0028 104.456 66.248 104.48 66.5321 104.448C66.8141 104.416 67.3426 104.448 67.7062 104.518C68.6581 104.701 73.3338 104.719 73.7725 104.54C73.9654 104.462 74.4263 104.419 74.8175 104.443C75.3149 104.473 75.561 104.439 75.668 104.325C75.7686 104.217 75.9759 104.182 76.2936 104.217C76.617 104.254 76.8183 104.218 76.9241 104.105C77.0221 103.999 77.2116 103.959 77.4384 103.994C77.6359 104.024 77.8751 103.986 77.97 103.91C78.202 103.723 79.1033 103.445 79.1919 103.533C79.2307 103.572 79.3376 103.529 79.4293 103.437C79.5213 103.345 79.6961 103.27 79.8183 103.27C79.9402 103.27 80.04 103.212 80.04 103.141C80.04 103.059 80.1636 103.036 80.3746 103.078C80.6084 103.125 80.7285 103.095 80.7734 102.978C80.8099 102.883 80.9864 102.81 81.1796 102.81C81.3677 102.81 81.5534 102.758 81.5925 102.695C81.6316 102.632 81.7641 102.58 81.8869 102.58C82.0097 102.58 82.11 102.528 82.11 102.465C82.11 102.402 82.2103 102.35 82.3331 102.35C82.4559 102.35 82.5884 102.298 82.6275 102.235C82.6666 102.172 82.825 102.12 82.9794 102.12C83.1338 102.12 83.26 102.068 83.26 102.005C83.26 101.942 83.3635 101.89 83.49 101.89C83.6165 101.89 83.72 101.846 83.72 101.793C83.72 101.74 83.9658 101.573 84.2662 101.424C84.5667 101.274 85.0287 101.007 85.2932 100.831C85.5577 100.654 85.8001 100.51 85.8317 100.51C85.8987 100.51 87.0837 99.7941 87.17 99.7015C87.2016 99.6676 87.4862 99.4523 87.8025 99.2229C88.1187 98.9934 88.5028 98.6717 88.6564 98.5078C88.8096 98.344 88.9956 98.21 89.0698 98.21C89.1437 98.21 89.2981 98.1065 89.4125 97.98C89.5269 97.8535 89.6661 97.75 89.7216 97.75C89.8863 97.75 92.69 94.9595 92.69 94.7956C92.69 94.7128 92.7357 94.645 92.7915 94.645C92.8475 94.645 93.0675 94.4118 93.2802 94.1266C93.4933 93.8414 93.8607 93.3886 94.097 93.1204C94.3333 92.8521 94.5274 92.5868 94.5283 92.5307C94.5291 92.4747 94.6464 92.3154 94.7887 92.1765C95.1119 91.8614 95.45 91.4431 95.45 91.358C95.45 91.3229 95.5958 91.0777 95.774 90.8132C95.952 90.5487 96.1863 90.1407 96.2944 89.9067C96.4022 89.6724 96.554 89.4119 96.6316 89.328C96.9576 88.9749 98.0743 86.737 98.2678 86.0487C98.3077 85.9064 98.3923 85.79 98.4555 85.79C98.5188 85.79 98.5389 85.6908 98.5006 85.5698C98.4621 85.4484 98.4846 85.3162 98.5504 85.2754C98.6162 85.2348 98.67 85.1262 98.67 85.0344C98.67 84.9427 98.7787 84.6222 98.9115 84.3226C99.0443 84.0227 99.193 83.674 99.2421 83.5475C99.2913 83.421 99.3979 83.1622 99.4796 82.9725C99.561 82.7828 99.6161 82.5159 99.6021 82.3797C99.588 82.2434 99.6311 82.0982 99.6981 82.0568C99.7651 82.0154 99.82 81.8846 99.82 81.7664C99.82 81.6483 99.9002 81.4712 99.9982 81.3731C100.124 81.2469 100.155 81.0813 100.103 80.8042C100.053 80.5405 100.081 80.3652 100.187 80.266C100.279 80.1806 100.327 79.9652 100.302 79.7531C100.275 79.5225 100.328 79.3189 100.444 79.2019C100.58 79.0671 100.611 78.8983 100.561 78.5798C100.521 78.3282 100.553 77.9959 100.635 77.7975C100.716 77.6054 100.784 76.9315 100.79 76.2781C100.797 75.511 100.85 75.0542 100.943 74.9613C101.134 74.7704 101.146 71.4544 100.955 71.3908C100.871 71.3627 100.82 70.8903 100.808 70.0301C100.797 69.23 100.735 68.6124 100.648 68.4575C100.559 68.2968 100.534 68.0274 100.582 67.7272C100.634 67.4001 100.613 67.2238 100.515 67.1629C100.436 67.114 100.356 66.8423 100.339 66.5591C100.321 66.2756 100.251 65.9413 100.184 65.8156C100.117 65.69 100.092 65.4729 100.128 65.3332C100.172 65.1647 100.125 65.0288 99.9885 64.929C99.8588 64.8341 99.8108 64.705 99.8585 64.5806C99.9028 64.4653 99.8591 64.3077 99.7539 64.2025C99.6409 64.0892 99.5986 63.9207 99.6415 63.7508C99.6788 63.6016 99.6578 63.48 99.5943 63.48C99.5311 63.48 99.4454 63.3377 99.4037 63.1637C99.3623 62.9898 99.2795 62.7854 99.2197 62.7092C99.1599 62.6333 99.1446 62.4651 99.1858 62.3355C99.2269 62.2061 99.2151 62.1 99.1599 62.1C99.1044 62.1 98.9676 61.8801 98.8557 61.6112C98.7436 61.3424 98.6076 61.019 98.5533 60.8925C98.394 60.5219 98.2773 60.0953 98.3063 59.9892C98.321 59.9351 98.2738 59.8195 98.2017 59.7324C98.07 59.5737 97.06 57.5448 97.06 57.4388C97.06 57.3591 95.9209 55.5462 95.6535 55.2C95.5314 55.0419 95.176 54.5761 94.8638 54.165C94.5516 53.7539 94.0985 53.1587 93.8567 52.8425C93.6149 52.5262 93.3952 52.2011 93.3685 52.1197C93.3101 51.9423 90.6959 49.3071 90.0263 48.7508C89.7658 48.5346 89.2624 48.0956 88.9076 47.7753C88.3234 47.2483 85.9024 45.54 85.7397 45.54C85.5882 45.54 84.5503 45.0167 84.1018 44.7143C83.8373 44.5358 83.5397 44.39 83.4405 44.39C83.3414 44.39 83.26 44.3382 83.26 44.275C83.26 44.2117 83.1921 44.16 83.1091 44.16C83.026 44.16 82.7439 44.0565 82.482 43.93C82.2204 43.8035 81.9513 43.7 81.884 43.7C81.8167 43.7 81.6721 43.6543 81.5623 43.5985C81.4525 43.5424 81.2072 43.4329 81.0175 43.355C80.8277 43.2771 80.5825 43.1675 80.4727 43.1115C80.3629 43.0557 80.1719 43.01 80.0483 43.01C79.9247 43.01 79.7916 42.9582 79.7525 42.895C79.7134 42.8317 79.5535 42.78 79.3971 42.78C79.2407 42.78 79.0866 42.7116 79.0544 42.6282C79.0185 42.5342 78.8716 42.4945 78.6692 42.5241C78.4895 42.5506 78.3072 42.5155 78.2644 42.4459C78.2215 42.3766 78.0444 42.32 77.8711 42.32C77.6977 42.32 77.5068 42.2731 77.4467 42.2162C77.3867 42.159 77.1046 42.0863 76.82 42.0543C76.1024 41.9738 75.1781 41.7608 75.1013 41.6582C74.9992 41.5213 71.9069 41.5472 71.6456 41.6872ZM53.6475 47.4677C53.4577 47.6448 53.1214 47.915 52.9 48.068C52.6786 48.2209 52.187 48.6421 51.8075 49.0038C51.428 49.3658 50.9622 49.7812 50.7725 49.9272C50.3341 50.2645 50.2676 50.3335 49.8689 50.8674C49.688 51.1092 49.3775 51.472 49.1789 51.6738C48.9802 51.8756 48.6717 52.2353 48.4935 52.4731C48.3152 52.7108 48.0435 53.0311 47.8897 53.1849C47.7359 53.3387 47.61 53.5058 47.6097 53.5561C47.6097 53.6064 47.4544 53.8286 47.265 54.05C47.0755 54.2714 46.9203 54.4936 46.9203 54.5436C46.92 54.5939 46.7869 54.7751 46.6242 54.9461C46.4617 55.1175 46.2424 55.4516 46.1371 55.6887C46.0319 55.9259 45.9063 56.12 45.858 56.12C45.8097 56.12 45.77 56.1976 45.77 56.2925C45.77 56.3874 45.7182 56.465 45.655 56.465C45.5917 56.465 45.54 56.5944 45.54 56.7525C45.54 56.9106 45.4882 57.04 45.425 57.04C45.3617 57.04 45.31 57.1104 45.31 57.1964C45.31 57.2824 45.1611 57.6575 44.9788 58.0301C44.7965 58.4027 44.4806 59.0697 44.2767 59.5125C44.0726 59.9552 43.8596 60.4075 43.8029 60.5173C43.7463 60.6271 43.7 60.818 43.7 60.9417C43.7 61.0653 43.6482 61.1984 43.585 61.2375C43.5217 61.2766 43.47 61.4097 43.47 61.5333C43.47 61.657 43.4182 61.8608 43.355 61.9864C43.2917 62.1121 43.1882 62.3179 43.125 62.4436C43.0617 62.5692 43.01 62.8507 43.01 63.0692C43.01 63.2877 42.9582 63.4984 42.895 63.5375C42.8317 63.5766 42.78 63.7505 42.78 63.9239C42.78 64.0973 42.7331 64.2882 42.6762 64.3483C42.5787 64.4509 42.5218 64.7841 42.3637 66.1825C42.328 66.4987 42.2519 66.8067 42.1944 66.8667C42.1369 66.9268 42.09 67.4024 42.09 67.9236C42.09 68.4448 42.0443 68.8997 41.9882 68.9342C41.8241 69.0356 41.7346 73.1639 41.8563 75.0375C41.9569 76.588 42.0204 77.1739 42.2723 78.8716L42.3462 79.3707L42.7642 79.2741C42.9942 79.2212 43.6224 79.1778 44.16 79.1775C44.8161 79.1775 45.1677 79.1303 45.2295 79.0337C45.2858 78.9455 45.5825 78.89 45.9988 78.89C46.3714 78.89 46.7084 78.8382 46.7475 78.775C46.7866 78.7117 46.9677 78.66 47.15 78.66C47.3323 78.66 47.5134 78.6083 47.5525 78.545C47.5916 78.4818 47.7986 78.43 48.0125 78.43C48.2264 78.43 48.4334 78.3782 48.4725 78.315C48.5116 78.2517 48.6688 78.2 48.8221 78.2C49.1679 78.2 49.2703 77.8662 49.174 77.0543C49.136 76.7358 49.0765 76.2033 49.042 75.8712C49.0072 75.5392 48.9279 75.164 48.8652 75.0375C48.6341 74.5692 48.8586 68.1824 49.1156 67.9132C49.1731 67.8532 49.22 67.6068 49.22 67.3656C49.22 67.1243 49.2654 66.8371 49.3209 66.7273C49.4908 66.3909 49.68 65.7199 49.68 65.454C49.68 65.2107 49.7191 65.1026 50.0072 64.5452C50.0802 64.4037 50.14 64.1573 50.14 63.9975C50.14 63.8377 50.1857 63.6171 50.2415 63.5073C50.2975 63.3975 50.3936 63.1781 50.4554 63.02C50.5169 62.8619 50.6782 62.5077 50.8136 62.2328C50.949 61.958 51.06 61.6604 51.06 61.5716C51.06 61.4827 51.1117 61.41 51.175 61.41C51.2382 61.41 51.29 61.3065 51.29 61.18C51.29 61.0535 51.3417 60.95 51.405 60.95C51.4682 60.95 51.52 60.8954 51.52 60.8287C51.52 60.762 51.727 60.4026 51.98 60.03C52.233 59.6574 52.44 59.3023 52.44 59.2408C52.44 59.1796 52.4823 59.112 52.5343 59.0907C52.586 59.0698 52.8543 58.7161 53.13 58.305C53.4057 57.8939 53.6739 57.5402 53.7257 57.5193C53.7777 57.498 53.8203 57.4204 53.8206 57.3468C53.8209 57.2729 53.9649 57.0573 54.1406 56.8675C54.826 56.1272 55.4769 55.0206 55.346 54.8188C55.2972 54.7437 55.2187 54.2038 55.1712 53.6187C55.0249 51.8132 54.8757 50.458 54.744 49.7375C54.6747 49.358 54.581 48.6335 54.5353 48.1275C54.439 47.0568 54.2432 46.9114 53.6475 47.4677Z" fill="#FF9635"/>
</svg>
